<?xml version="1.0" standalone="no"?>
<!DOCTYPE svg PUBLIC "-//W3C//DTD SVG 20010904//EN"
 "http://www.w3.org/TR/2001/REC-SVG-20010904/DTD/svg10.dtd">
<svg version="1.0" xmlns="http://www.w3.org/2000/svg"
 width="512.000000pt" height="512.000000pt" viewBox="0 0 512.000000 512.000000"
 preserveAspectRatio="xMidYMid meet">

<g transform="translate(0.000000,512.000000) scale(0.100000,-0.100000)"
fill="#000000" stroke="none">
<path d="M2261 4804 c-13 -9 -29 -32 -37 -50 -12 -29 -12 -39 0 -68 29 -70
105 -88 157 -37 83 83 -24 222 -120 155z"/>
<path d="M2657 4770 c-28 -18 -49 -69 -43 -105 10 -51 41 -70 158 -99 59 -15
133 -36 163 -46 48 -17 73 -18 188 -13 111 5 142 3 185 -11 67 -23 107 -56
137 -117 14 -27 34 -53 44 -59 11 -5 51 -10 90 -10 305 0 520 -113 576 -304
20 -66 20 -66 -15 -66 -104 0 -254 -65 -334 -145 -64 -64 -110 -150 -100 -189
9 -39 59 -76 101 -76 37 0 50 12 133 111 51 62 123 92 233 97 74 4 95 1 140
-18 123 -53 181 -114 195 -204 9 -54 13 -62 69 -112 71 -62 93 -109 93 -193
l0 -58 -67 -17 c-152 -37 -256 -115 -317 -237 -60 -120 -58 -222 5 -254 67
-35 130 2 148 86 27 123 90 184 221 213 21 4 35 -3 73 -40 205 -196 240 -530
102 -960 -45 -138 -91 -219 -175 -305 -71 -72 -142 -114 -224 -130 l-52 -11
-83 56 c-136 93 -390 201 -520 222 -73 12 -131 -32 -131 -100 0 -37 45 -84 93
-96 147 -37 328 -113 433 -182 l65 -43 -6 -45 c-10 -73 -69 -182 -125 -233
-68 -61 -121 -91 -232 -129 -91 -32 -97 -32 -258 -32 -181 1 -242 12 -397 74
-69 28 -82 30 -115 20 -25 -7 -43 -21 -53 -40 -22 -42 -29 -180 -16 -304 7
-59 11 -110 9 -111 -6 -7 -250 -46 -255 -41 -2 2 -26 89 -52 193 -60 233 -98
346 -166 490 -50 104 -127 232 -182 297 -13 16 -20 32 -16 37 13 13 298 66
448 84 164 19 191 28 210 66 34 64 4 133 -61 145 -73 14 -468 -50 -719 -115
-217 -57 -528 -67 -683 -22 -272 79 -419 256 -410 494 3 67 2 69 -31 99 -32
29 -37 30 -85 22 -205 -33 -532 65 -649 195 -61 67 -80 115 -84 211 -5 119 -9
128 -59 175 -60 54 -67 98 -29 170 15 28 34 63 42 79 15 26 14 36 0 100 -26
110 -31 178 -18 252 27 151 121 262 271 320 64 24 87 49 100 107 38 180 133
246 331 232 67 -4 104 -3 119 5 12 6 34 39 50 73 50 111 145 175 298 203 130
23 133 22 171 -41 87 -143 113 -287 72 -395 -30 -77 -28 -115 8 -151 82 -82
184 7 207 181 6 48 10 54 43 68 20 9 67 16 106 16 85 1 112 -14 156 -82 50
-79 117 -96 170 -43 55 55 27 143 -74 237 -93 86 -223 115 -360 79 -71 -18
-67 -19 -67 2 0 9 -21 60 -46 111 -36 75 -43 97 -32 103 7 5 57 23 111 40 101
32 119 46 132 100 10 39 -19 88 -62 106 -34 14 -41 13 -133 -16 -53 -17 -130
-46 -171 -64 -59 -27 -92 -35 -166 -41 -227 -17 -422 -111 -503 -245 -25 -40
-25 -40 -87 -41 -216 -1 -381 -116 -448 -313 -10 -31 -24 -57 -29 -57 -24 0
-153 -87 -205 -139 -60 -60 -119 -161 -145 -251 -25 -83 -30 -220 -12 -318 14
-78 14 -85 -4 -115 -71 -123 -63 -271 20 -371 35 -43 40 -54 40 -100 0 -94 46
-214 114 -295 58 -70 125 -119 231 -171 119 -59 233 -93 390 -117 110 -16 116
-18 121 -42 55 -279 218 -456 504 -549 158 -52 355 -66 575 -42 l90 10 49 -52
c170 -185 267 -395 367 -790 77 -309 92 -338 174 -338 22 0 143 18 268 39 297
51 302 54 268 220 -11 53 -22 122 -25 154 -4 51 -3 57 12 53 141 -43 270 -60
420 -54 158 7 262 32 398 98 201 97 327 258 368 470 5 22 13 28 65 38 145 30
300 148 410 312 83 124 141 288 188 525 26 137 24 392 -5 507 -37 149 -113
288 -205 377 -32 30 -34 36 -26 64 14 50 11 178 -7 238 -20 68 -56 131 -109
189 -24 26 -47 64 -54 89 -7 24 -23 60 -36 80 -36 57 -135 143 -208 180 -52
27 -69 40 -72 60 -30 161 -72 255 -151 341 -122 131 -298 205 -539 225 -79 7
-81 8 -110 46 -37 50 -114 103 -190 131 -51 19 -83 23 -220 25 -145 2 -170 5
-265 33 -118 34 -216 46 -243 30z"/>
<path d="M2745 4329 c-48 -7 -65 -15 -87 -39 -46 -50 -33 -126 27 -154 25 -12
44 -14 90 -6 74 12 127 4 186 -27 58 -31 86 -68 119 -158 21 -58 32 -73 61
-89 42 -23 79 -17 116 20 23 23 25 31 20 84 -6 74 -53 172 -113 239 -56 62
-161 116 -254 131 -73 11 -81 11 -165 -1z"/>
<path d="M782 3755 c-44 -19 -64 -67 -52 -121 5 -21 10 -70 10 -108 0 -117
-51 -191 -170 -244 -68 -30 -89 -56 -90 -105 0 -54 43 -97 98 -97 49 0 144 47
206 101 l46 40 67 -33 c64 -31 73 -33 173 -33 92 1 114 4 179 30 92 37 141 80
141 123 0 46 -19 79 -55 97 -41 19 -53 19 -90 -1 -54 -29 -137 -54 -179 -54
-24 0 -61 10 -85 23 l-44 22 -1 135 c-2 160 -15 202 -70 225 -42 18 -42 18
-84 0z"/>
<path d="M2373 3462 c-37 -29 -45 -66 -28 -131 28 -108 107 -254 169 -310 14
-14 26 -33 26 -43 0 -31 -76 -103 -144 -136 -74 -36 -96 -62 -96 -112 0 -72
59 -112 133 -91 91 27 212 117 257 190 17 28 30 39 40 34 65 -26 157 -44 238
-46 l93 -2 31 34 c26 29 30 39 25 75 -7 53 -44 86 -95 86 -120 0 -250 46 -329
114 -59 52 -119 146 -145 229 -29 94 -58 127 -112 127 -23 0 -51 -8 -63 -18z"/>
<path d="M3260 3413 c-30 -11 -60 -47 -66 -78 -8 -43 16 -87 60 -114 52 -33
141 -133 170 -193 56 -117 53 -242 -11 -383 -56 -123 -47 -179 33 -205 71 -24
128 40 184 206 29 87 33 112 33 204 1 91 -3 116 -29 190 -37 106 -89 185 -177
272 -87 86 -150 118 -197 101z"/>
<path d="M1499 2951 c-25 -26 -29 -37 -29 -88 0 -89 -24 -146 -90 -216 l-57
-61 -69 23 c-84 28 -230 38 -292 22 -31 -9 -48 -21 -62 -44 -24 -39 -25 -59
-5 -97 22 -43 48 -52 154 -54 111 -2 165 -17 216 -58 52 -44 75 -96 86 -200 5
-49 14 -98 19 -109 12 -21 60 -49 85 -49 33 0 77 32 91 67 26 62 -1 229 -51
320 l-23 43 51 53 c97 101 147 215 147 339 0 69 -15 105 -51 124 -45 23 -87
18 -120 -15z"/>
<path d="M3925 2529 c-62 -36 -72 -100 -24 -172 40 -61 141 -153 196 -180 41
-20 44 -24 39 -52 -23 -130 -14 -228 29 -320 30 -62 87 -130 127 -151 57 -30
127 4 143 68 10 38 -1 63 -50 118 -54 61 -71 126 -56 220 6 34 12 64 14 66 2
3 31 11 63 19 76 20 179 71 221 111 27 26 33 39 33 73 0 34 -6 49 -29 72 -40
39 -82 39 -147 -3 -64 -41 -143 -68 -197 -68 -59 0 -139 42 -185 97 -20 24
-48 58 -62 74 -28 33 -83 47 -115 28z"/>
<path d="M2727 2395 c-113 -127 -154 -163 -210 -184 -70 -26 -199 -29 -273 -6
-76 23 -111 20 -145 -14 -46 -46 -36 -121 19 -153 81 -47 299 -64 416 -33 136
36 284 152 340 267 32 65 28 96 -16 133 -45 38 -92 34 -131 -10z"/>
<path d="M3315 1831 c-48 -20 -72 -74 -55 -125 23 -70 108 -89 161 -37 51 51
33 137 -33 160 -36 13 -45 13 -73 2z"/>
</g>
</svg>
