<?xml version="1.0" encoding="UTF-8"?>
<svg version="1.1" xmlns="http://www.w3.org/2000/svg" width="512" height="512">
<path d="M0 0 C1.0627565 -0.01985962 2.125513 -0.03971924 3.22047424 -0.06018066 C6.73278271 -0.11853296 10.24436664 -0.14586231 13.75708008 -0.16796875 C14.96350977 -0.17927826 16.16993946 -0.19058777 17.41292763 -0.20223999 C23.80852374 -0.26218441 30.20376015 -0.29910614 36.59960938 -0.31640625 C43.16138777 -0.33823539 49.71979905 -0.43410024 56.28052807 -0.54829407 C61.36234066 -0.62338873 66.44336991 -0.64365313 71.52569008 -0.64974976 C73.94120834 -0.66174475 76.35672217 -0.69347913 78.77168846 -0.74649048 C94.98999246 -1.07682898 105.34637977 1.15340047 118.28731155 11.13855648 C121.62754665 13.59021373 125.21473193 15.58477525 128.83911133 17.58203125 C129.64944824 18.03118896 130.45978516 18.48034668 131.29467773 18.94311523 C159.74653536 34.04205345 188.89967465 45.92878946 220.51098633 52.53125 C221.67114258 52.77488281 222.83129883 53.01851562 224.02661133 53.26953125 C224.97922852 53.44742188 225.9318457 53.6253125 226.91333008 53.80859375 C230.0345203 54.88417299 231.28967605 56.05021665 233.33911133 58.64453125 C233.83968258 61.77986813 233.83968258 61.77986813 233.84031677 65.55198669 C233.84585117 66.24704207 233.85138557 66.94209745 233.85708767 67.65821511 C233.87070264 69.98792037 233.85572035 72.31655571 233.84082031 74.64624023 C233.84460379 76.31717382 233.85010408 77.98810427 233.85719299 79.6590271 C233.87117948 84.20357652 233.85994731 88.74774853 233.84348178 93.2922771 C233.82961497 98.06440691 233.8360947 102.83651513 233.83961487 107.60865784 C233.84232016 115.64126637 233.8288293 123.67372581 233.80566406 131.70629883 C233.77920616 140.94346155 233.77725679 150.18037255 233.78905243 159.41756004 C233.79991437 168.33853089 233.79356785 177.25941223 233.77949715 186.18037605 C233.77379416 189.95612816 233.77377496 193.73181353 233.77856255 197.50756645 C233.821702 243.17365292 233.821702 243.17365292 227.65161133 263.20703125 C227.39669922 264.06087402 227.14178711 264.9147168 226.87915039 265.79443359 C220.44474309 286.72355412 211.20375305 306.86919296 198.33911133 324.64453125 C197.90373047 325.2482959 197.46834961 325.85206055 197.01977539 326.47412109 C189.92497413 336.26416771 182.48312265 345.70475826 174.33911133 354.64453125 C173.72036133 355.32596191 173.10161133 356.00739258 172.46411133 356.70947266 C170.50886984 358.83686463 168.52420279 360.93191585 166.52661133 363.01953125 C165.91648193 363.68090088 165.30635254 364.34227051 164.67773438 365.02368164 C161.53074773 368.23399311 160.13219157 369.53916838 155.54614258 370.1484375 C152.33911133 369.64453125 152.33911133 369.64453125 149.83911133 368.20703125 C147.48865603 364.19167011 148.19141601 361.04402998 149.33911133 356.64453125 C150.47136604 353.67970132 151.72593183 350.78798434 153.00317383 347.8828125 C169.41274473 308.10639649 160.98873905 252.38250401 161.33911133 216.64453125 C84.77911133 216.64453125 8.21911133 216.64453125 -70.66088867 216.64453125 C-73.93257295 290.11595179 -73.93257295 290.11595179 -58.50463867 357.39453125 C-57.3929895 360.35892904 -57.26002833 362.50445857 -57.66088867 365.64453125 C-59.73216681 368.79287402 -61.04243617 369.51296237 -64.72729492 370.296875 C-70.87606661 369.27716808 -73.87622322 365.25448624 -78.03588867 360.83203125 C-78.88368896 359.95417969 -79.73148926 359.07632812 -80.60498047 358.171875 C-86.29739694 352.22718285 -91.72290022 346.23431161 -96.66088867 339.64453125 C-97.73366629 338.26161087 -98.80659703 336.87880927 -99.87963867 335.49609375 C-127.18047931 299.86127269 -142.76450207 259.65799679 -142.83789062 214.69189453 C-142.84416636 212.99249639 -142.85081412 211.29309958 -142.85780334 209.59370422 C-142.87868721 204.05076018 -142.88918035 198.5078163 -142.89916992 192.96484375 C-142.9032212 191.0512376 -142.90733823 189.13763159 -142.91152 187.22402573 C-142.93052496 178.24431917 -142.9447744 169.26462068 -142.95313197 160.28489792 C-142.96293369 149.92682954 -142.98934888 139.56897318 -143.02963287 129.21097958 C-143.05974684 121.19294556 -143.07459573 113.17497261 -143.07791299 105.15688312 C-143.08026574 100.37139041 -143.08925809 95.58612549 -143.11437416 90.80069351 C-143.13758209 86.30751003 -143.14191773 81.81470568 -143.13161278 77.32147789 C-143.13111579 75.67187809 -143.13748412 74.02226002 -143.15116882 72.3727169 C-143.16878925 70.12335476 -143.16183236 67.87536871 -143.14863586 65.62600708 C-143.15102422 64.36692095 -143.15341257 63.10783482 -143.1558733 61.81059456 C-142.5697218 58.06140187 -141.64383582 56.91163191 -138.66088867 54.64453125 C-136.02075195 53.70654297 -136.02075195 53.70654297 -132.98120117 53.07421875 C-131.26888306 52.69740967 -131.26888306 52.69740967 -129.52197266 52.31298828 C-128.28906494 52.05114746 -127.05615723 51.78930664 -125.78588867 51.51953125 C-103.78394101 46.51399477 -82.30852969 39.69290107 -61.98657227 29.77880859 C-59.60216932 28.61589277 -57.20467691 27.4834681 -54.80541992 26.3515625 C-40.96954216 19.72312284 -26.03184589 12.39659224 -14.17250061 2.58602905 C-9.7866415 -0.31599729 -5.10447897 0.02291921 0 0 Z M-19.73704243 24.22511673 C-23.07965852 26.69130021 -26.70879221 28.65471948 -30.34838867 30.64453125 C-31.17878662 31.10279297 -32.00918457 31.56105469 -32.86474609 32.03320312 C-35.12867254 33.23975783 -37.39358642 34.44432929 -39.66088867 35.64453125 C-40.49185059 36.08796875 -41.3228125 36.53140625 -42.17895508 36.98828125 C-66.61523958 49.93514431 -92.59501452 59.46934303 -119.52197266 65.74267578 C-120.6991045 66.01822044 -120.6991045 66.01822044 -121.90001678 66.29933167 C-123.82009316 66.74864808 -125.74046142 67.1967169 -127.66088867 67.64453125 C-127.7312361 88.56892347 -127.78400214 109.49329595 -127.81632519 130.41778278 C-127.83173795 140.13525173 -127.8527194 149.85264684 -127.88720703 159.57006836 C-127.91728181 168.04820551 -127.9365042 176.52628913 -127.94315416 185.00447816 C-127.94703607 189.48596118 -127.95603974 193.96729119 -127.97807884 198.44872475 C-128.2807602 224.20848665 -128.2807602 224.20848665 -124.66088867 249.64453125 C-124.42936096 250.69314835 -124.19783325 251.74176544 -123.95928955 252.82215881 C-123.39582553 255.25197664 -122.74768573 257.62933038 -122.03588867 260.01953125 C-121.65630005 261.30996338 -121.65630005 261.30996338 -121.26904297 262.62646484 C-114.9639576 283.2344241 -102.37320981 317.16965049 -83.66088867 329.64453125 C-83.82289261 328.39735321 -83.98489655 327.15017517 -84.15180969 325.86520386 C-84.76905804 320.27538494 -84.80860493 314.7327156 -84.80615234 309.11376953 C-84.80951096 307.99561356 -84.81286957 306.87745758 -84.81632996 305.72541809 C-84.82577614 302.05521515 -84.82777924 298.38505806 -84.82885742 294.71484375 C-84.83207215 292.15656516 -84.83543639 289.59828675 -84.83894348 287.04000854 C-84.84491724 281.69235737 -84.84682794 276.34472318 -84.84619141 270.99707031 C-84.84558849 264.81609288 -84.85619084 258.63520211 -84.87193507 252.45424664 C-84.88657011 246.49604429 -84.8901801 240.53786856 -84.88958168 234.57964706 C-84.89076409 232.04781615 -84.89520039 229.51598463 -84.90291405 226.98416519 C-84.91266592 223.45567747 -84.90985594 219.92741684 -84.90380859 216.39892578 C-84.9094281 215.34851608 -84.91504761 214.29810638 -84.9208374 213.21586609 C-84.91664291 212.25712082 -84.91244843 211.29837555 -84.90812683 210.31057739 C-84.9086716 209.47698259 -84.90921637 208.64338779 -84.90977764 207.78453255 C-84.66088867 205.64453125 -84.66088867 205.64453125 -82.66088867 202.64453125 C-80.23071289 202.2121582 -80.23071289 202.2121582 -77.21557617 202.1328125 C-76.13920898 202.09736328 -75.0628418 202.06191406 -73.95385742 202.02539062 C-72.82592773 202.00283203 -71.69799805 201.98027344 -70.53588867 201.95703125 C-69.40022461 201.92287109 -68.26456055 201.88871094 -67.09448242 201.85351562 C-64.28338288 201.77083623 -61.47260314 201.70175188 -58.66088867 201.64453125 C-58.65502243 201.01829361 -58.64915619 200.39205597 -58.64311218 199.74684143 C-58.57845022 193.14239317 -58.49385824 186.53839999 -58.3984375 179.93432617 C-58.36548113 177.4799607 -58.33736138 175.02552475 -58.31445312 172.57104492 C-58.14869337 155.2720747 -57.88821904 138.35382846 -51.53588867 122.01953125 C-51.23585938 121.23376709 -50.93583008 120.44800293 -50.62670898 119.63842773 C-45.31906277 106.27598204 -37.7211627 95.79696046 -27.66088867 85.64453125 C-27.03311523 84.96777344 -26.4053418 84.29101562 -25.75854492 83.59375 C-8.36321713 65.13423745 17.40767055 57.27875069 41.99145508 55.359375 C68.25693611 54.65446711 95.02065923 63.68903743 114.33911133 81.64453125 C115.72356445 82.90910156 115.72356445 82.90910156 117.13598633 84.19921875 C136.6272413 102.77513854 147.75673739 128.13342224 148.65795898 154.9855957 C148.6987046 157.15951781 148.73017976 159.33363017 148.75317383 161.5078125 C148.78222305 163.24480659 148.78222305 163.24480659 148.81185913 165.01689148 C148.87095412 168.66353319 148.91775647 172.31020768 148.96411133 175.95703125 C149.00235577 178.45118455 149.0414111 180.94532556 149.08129883 183.43945312 C149.17659668 189.50770219 149.26184232 195.57602723 149.33911133 201.64453125 C150.05566895 201.65911377 150.77222656 201.67369629 151.51049805 201.6887207 C154.74559116 201.76302125 157.97963152 201.85973986 161.21411133 201.95703125 C162.90600586 201.99086914 162.90600586 201.99086914 164.63208008 202.02539062 C165.70844727 202.06083984 166.78481445 202.09628906 167.89379883 202.1328125 C168.88879395 202.15899658 169.88378906 202.18518066 170.90893555 202.2121582 C171.71089355 202.35484131 172.51285156 202.49752441 173.33911133 202.64453125 C175.46549216 205.83410249 175.58876236 206.6121625 175.58634949 210.2658844 C175.59054398 211.21477036 175.59473846 212.16365631 175.59906006 213.14129639 C175.59344055 214.1807843 175.58782104 215.22027222 175.58203125 216.29125977 C175.5839296 217.38754196 175.58582794 218.48382416 175.58778381 219.61332703 C175.59149847 223.25010251 175.58077269 226.88667964 175.56958008 230.5234375 C175.56838795 233.05110145 175.56793519 235.57876584 175.56819153 238.10643005 C175.56662517 243.41351288 175.55857072 248.72052686 175.54492188 254.02758789 C175.52925259 260.14238702 175.52392184 266.25712338 175.52465743 272.37194115 C175.52527081 278.26924359 175.52002467 284.16652813 175.51186562 290.06382561 C175.50869279 292.56474625 175.50671479 295.06566872 175.50597191 297.56659126 C175.50379016 301.07510569 175.49500483 304.58354327 175.484375 308.09204102 C175.48505478 309.63001846 175.48505478 309.63001846 175.48574829 311.19906616 C175.45842638 317.4041731 175.07806229 323.48315183 174.33911133 329.64453125 C193.14185952 311.60450477 205.35806087 284.8078257 212.65161133 260.14453125 C212.88219238 259.37560547 213.11277344 258.60667969 213.3503418 257.81445312 C214.10373753 255.10643554 214.72539632 252.38791998 215.33911133 249.64453125 C215.72286926 247.9605146 215.72286926 247.9605146 216.11437988 246.24247742 C219.46399837 229.65051618 218.72611137 212.64387044 218.64329314 195.80360436 C218.62432645 191.28600963 218.62276037 186.76840661 218.61921692 182.2507782 C218.60995441 173.72673123 218.58542055 165.202802 218.55516845 156.67880648 C218.52144218 146.96151787 218.50509297 137.24422313 218.49008214 127.5268904 C218.45886466 107.56603873 218.40621904 87.60529246 218.33911133 67.64453125 C217.56160522 67.45539154 216.78409912 67.26625183 215.98303223 67.07138062 C212.38167908 66.19212707 208.78228575 65.30508353 205.18286133 64.41796875 C203.96050781 64.12075928 202.7381543 63.8235498 201.47875977 63.51733398 C181.63594035 58.60905402 162.73245724 51.51049264 144.33911133 42.64453125 C143.47398926 42.23509277 142.60886719 41.8256543 141.7175293 41.40380859 C106.23913191 24.56780157 106.23913191 24.56780157 97.7858429 16.08602905 C93.99797273 13.85439621 90.29829209 14.16080672 85.97509766 14.12939453 C85.02646347 14.11128723 84.07782928 14.09317993 83.10044861 14.07452393 C79.95731852 14.0204605 76.81462818 13.99030058 73.67114258 13.96484375 C72.59277319 13.95386532 71.5144038 13.94288689 70.40335655 13.93157578 C64.68443514 13.8748431 58.9657341 13.83703538 53.24658203 13.81396484 C47.37746866 13.78649803 41.511338 13.69389458 35.64323902 13.58564949 C31.1002576 13.5141904 26.55796564 13.49273824 22.01447105 13.48406601 C19.8540738 13.47140832 17.69369404 13.4404557 15.53385353 13.38980484 C0.92420054 13.06960143 -8.18283761 15.12782428 -19.73704243 24.22511673 Z M-22.03588867 100.14453125 C-36.92453067 117.7856953 -43.86548298 138.88483857 -43.75854492 161.703125 C-43.75712997 162.8474147 -43.75571503 163.99170441 -43.7542572 165.17066956 C-43.74868168 168.80781726 -43.73613365 172.4449023 -43.72338867 176.08203125 C-43.71837051 178.55533765 -43.71380816 181.02864502 -43.7097168 183.50195312 C-43.69957327 189.54952245 -43.67999298 195.5969571 -43.66088867 201.64453125 C-33.10088867 201.64453125 -22.54088867 201.64453125 -11.66088867 201.64453125 C-11.63510742 197.76445312 -11.60932617 193.884375 -11.58276367 189.88671875 C-11.54424124 186.08700618 -11.49911374 182.28742466 -11.45336914 178.48779297 C-11.42531784 175.86741498 -11.40402541 173.24695486 -11.38989258 170.62646484 C-11.27285042 150.14408723 -11.01500926 132.67474877 3.65161133 116.83203125 C18.21704711 103.27222689 35.68756522 102.03568514 54.54418945 102.51269531 C68.76757677 103.18360981 80.79548281 110.35174418 90.33911133 120.64453125 C103.17463384 136.57828334 101.98448716 155.12026468 102.08911133 174.51953125 C102.11730988 177.15366514 102.14724264 179.78778107 102.17895508 182.421875 C102.25557357 188.82960008 102.2965306 195.23613139 102.33911133 201.64453125 C112.89911133 201.64453125 123.45911133 201.64453125 134.33911133 201.64453125 C134.40844714 194.51321489 134.4680413 187.3830954 134.50390625 180.25170898 C134.51887706 177.83207204 134.53926091 175.41246167 134.56542969 172.99291992 C134.89562623 141.65014623 128.48393282 116.34893111 106.08911133 93.33203125 C88.96234643 77.21272311 65.82863663 69.20162587 42.56567383 69.49609375 C16.98754336 70.67281162 -4.74058087 81.58776146 -22.03588867 100.14453125 Z M10.27661133 131.95703125 C5.68917464 138.32024988 3.20753461 144.27708328 3.22558594 152.14746094 C3.22570679 153.26362793 3.22582764 154.37979492 3.22595215 155.52978516 C3.23106812 156.69687012 3.23618408 157.86395508 3.24145508 159.06640625 C3.24246216 160.1435791 3.24346924 161.22075195 3.24450684 162.33056641 C3.24973632 166.35189886 3.26369759 170.37321613 3.27661133 174.39453125 C3.29723633 183.38703125 3.31786133 192.37953125 3.33911133 201.64453125 C31.05911133 201.64453125 58.77911133 201.64453125 87.33911133 201.64453125 C87.42161133 192.77578125 87.50411133 183.90703125 87.58911133 174.76953125 C87.62552734 171.98918457 87.66194336 169.20883789 87.69946289 166.34423828 C87.71115727 164.1136146 87.72134732 161.88298231 87.72973633 159.65234375 C87.76043213 157.94776001 87.76043213 157.94776001 87.79174805 156.20874023 C87.79693639 144.2366324 83.84101274 135.40195703 75.77661133 126.58203125 C66.40553338 117.42153932 55.34279498 116.3901784 42.93383789 116.39575195 C28.83035689 116.5740335 19.61429939 121.48750221 10.27661133 131.95703125 Z " fill="#000000" transform="translate(210.660888671875,36.35546875)"/>
<path d="M0 0 C1.07195114 -0.02009125 2.14390228 -0.0401825 3.24833679 -0.06088257 C5.01313385 -0.07837555 5.01313385 -0.07837555 6.81358337 -0.09622192 C8.67281685 -0.12557327 8.67281685 -0.12557327 10.5696106 -0.15551758 C14.6872736 -0.21551671 18.80479676 -0.25886445 22.92271423 -0.29592896 C23.97710099 -0.30582092 23.97710099 -0.30582092 25.0527885 -0.31591272 C31.69795769 -0.37754685 38.34314604 -0.43090669 44.98851871 -0.46475029 C53.45192103 -0.50837033 61.91275391 -0.59184142 70.37512976 -0.73162544 C76.3431336 -0.82679893 82.31045394 -0.87470991 88.27919191 -0.88914406 C91.83341897 -0.89896807 95.3847531 -0.92821873 98.93814278 -1.00863266 C115.91136657 -1.37473975 127.76843519 -0.49780493 140.93243217 10.79777145 C144.18165959 13.41326788 147.77376042 15.4425906 151.38755798 17.50875854 C152.50004237 18.15093732 152.50004237 18.15093732 153.63500118 18.8060894 C155.69202308 19.98930609 157.75739934 21.15674309 159.82505798 22.32125854 C160.48763611 22.69847046 161.15021423 23.07568237 161.83287048 23.46432495 C187.04439205 37.71995737 214.22906723 47.0382699 242.48521423 52.96188354 C246.78582829 53.8735436 251.0778472 54.81027579 255.35630798 55.82125854 C256.30183533 56.04297729 257.24736267 56.26469604 258.22154236 56.49313354 C264.59875754 58.52159509 268.99713246 62.98789391 272.81724548 68.31735229 C275.51205178 73.67562993 276.11855636 79.09374263 276.08575439 85.00035095 C276.08957994 85.74218311 276.09340549 86.48401527 276.09734696 87.2483272 C276.10761174 89.71810498 276.10369708 92.18764742 276.09971619 94.65744019 C276.10406677 96.43556431 276.10925108 98.21368655 276.11520386 99.99180603 C276.12858071 104.81505008 276.12917304 109.63821568 276.12664056 114.46147466 C276.12556806 118.50338758 276.13046233 122.54528483 276.13524598 126.58719438 C276.14634071 136.1428482 276.14678143 145.69846273 276.14073181 155.25411987 C276.13471745 165.06104733 276.14693823 174.8678304 276.16830188 184.67473322 C276.18602886 193.12781143 276.19190115 201.58084419 276.18866414 210.03394026 C276.18686569 215.06703482 276.18933983 220.10002683 276.20337868 225.13310432 C276.30759955 265.96043721 276.30759955 265.96043721 272.82505798 283.32125854 C272.46963928 285.10622993 272.46963928 285.10622993 272.10704041 286.92726135 C271.53339929 289.61037065 270.87018773 292.24008795 270.13755798 294.88375854 C269.88409607 295.82227661 269.63063416 296.76079468 269.36949158 297.72775269 C264.91891317 313.65986226 258.66297395 328.77411611 250.82505798 343.32125854 C250.47862244 343.97400757 250.13218689 344.62675659 249.7752533 345.29928589 C241.35683794 361.09247957 231.13915433 375.48226499 219.82505798 389.32125854 C219.38677673 389.86395386 218.94849548 390.40664917 218.49693298 390.96578979 C206.19402613 406.12731324 192.26966187 420.36571999 176.82505798 432.32125854 C174.96775394 433.90091046 173.11378665 435.48449111 171.26255798 437.07125854 C155.84615181 449.86569283 139.15403371 460.31693303 121.82505798 470.32125854 C121.11285095 470.7374646 120.40064392 471.15367065 119.66685486 471.58248901 C101.8884746 481.90647481 73.7760567 498.14122425 52.49351501 493.85128784 C50.08599527 493.17893828 47.74404436 492.40500598 45.38755798 491.57125854 C44.50285828 491.26615356 43.61815857 490.96104858 42.70664978 490.646698 C3.22145888 476.59172479 -33.00391356 454.25499736 -64.17494202 426.32125854 C-64.67509827 425.87749878 -65.17525452 425.43373901 -65.69056702 424.97653198 C-78.09309884 413.95296587 -89.94797183 402.4089197 -100.17494202 389.32125854 C-101.12548497 388.15768611 -102.07878533 386.99636271 -103.03431702 385.83688354 C-113.95089052 372.53187279 -123.06618647 358.49128037 -131.17494202 343.32125854 C-131.51767151 342.68639526 -131.860401 342.05153198 -132.21351624 341.39743042 C-143.89853806 319.58240642 -151.81484868 295.85042752 -155.17494202 271.32125854 C-155.26389111 270.67593453 -155.35284019 270.03061052 -155.44448471 269.36573124 C-156.45826787 260.74749265 -156.3308516 252.10124763 -156.33607483 243.4382019 C-156.34071051 241.6385437 -156.34573616 239.83888647 -156.35112 238.03923035 C-156.36416692 233.17573731 -156.37067286 228.31225803 -156.37513065 223.44875026 C-156.37807165 220.40631284 -156.38217817 217.36387911 -156.38663483 214.32144356 C-156.40028449 204.7901683 -156.40996559 195.25890155 -156.41383672 185.7276172 C-156.41832253 174.74592497 -156.43590532 163.76435688 -156.46483731 152.78270239 C-156.48646705 144.27627082 -156.49654156 135.76987417 -156.49787784 127.2634154 C-156.49892419 122.18997028 -156.50479702 117.11664228 -156.52269745 112.04322624 C-156.53920227 107.27347515 -156.54132194 102.50392898 -156.53255844 97.73415947 C-156.53178958 95.98830109 -156.53611087 94.24243155 -156.54601669 92.4966011 C-156.65861575 71.40884912 -156.65861575 71.40884912 -149.98744202 64.00875854 C-149.45763733 63.39387573 -148.92783264 62.77899292 -148.38197327 62.14547729 C-141.13988578 56.1595395 -132.49810931 54.87437082 -123.55863953 53.05938721 C-82.20442667 44.59095675 -44.74065024 27.67688562 -10.06239319 3.62716675 C-6.36679952 1.0702232 -4.48561772 0.06610301 0 0 Z M-13.33396912 23.90751743 C-16.5093147 26.34596539 -19.96445883 28.31851968 -23.42494202 30.32125854 C-24.20788635 30.78024536 -24.99083069 31.23923218 -25.79750061 31.71212769 C-27.92047281 32.92030773 -30.04583265 34.1239207 -32.17494202 35.32125854 C-32.95256897 35.75937866 -33.73019592 36.19749878 -34.53138733 36.64889526 C-63.131767 52.59093748 -93.8875687 63.49603227 -126.1532135 69.068573 C-133.05279459 70.22533064 -133.05279459 70.22533064 -138.40150452 74.37594604 C-141.07715257 78.81964348 -141.30345618 81.0566042 -141.31538391 86.29191589 C-141.31835503 87.01793084 -141.32132616 87.74394578 -141.32438731 88.49196118 C-141.33309596 90.93808288 -141.33458449 93.38415575 -141.33607483 95.83029175 C-141.34070214 97.5797435 -141.34572668 99.32919424 -141.35112 101.0786438 C-141.36427002 105.84631188 -141.3706961 110.61396586 -141.37513065 115.38164926 C-141.37806225 118.36718386 -141.38216762 121.35271463 -141.38663483 124.3382473 C-141.4003277 133.69764733 -141.40998086 143.05703858 -141.41383672 152.41644794 C-141.41829696 163.18245992 -141.43574197 173.94834364 -141.46483731 184.71431667 C-141.48658138 193.05347232 -141.49654803 201.39259228 -141.49787784 209.73177594 C-141.49891847 214.70176604 -141.50466399 219.67163588 -141.52269745 224.64159584 C-141.67226671 259.59006637 -141.67226671 259.59006637 -135.04994202 293.82125854 C-134.75063782 294.86040405 -134.45133362 295.89954956 -134.14295959 296.97018433 C-120.2369322 343.54135291 -88.34963562 386.37816098 -51.17494202 417.32125854 C-50.39248108 417.98125854 -49.61002014 418.64125854 -48.80384827 419.32125854 C-20.71803904 442.69132268 10.88312245 462.98847755 45.45005798 475.25875854 C46.27973083 475.55371216 47.10940369 475.84866577 47.96421814 476.15255737 C56.71032904 479.1447416 62.46207354 479.65770198 71.13755798 476.38375854 C72.01275085 476.06382935 72.88794373 475.74390015 73.78965759 475.41427612 C105.72002598 463.53649007 135.6869271 446.19364647 161.82505798 424.32125854 C163.32746033 423.07795776 163.32746033 423.07795776 164.86021423 421.80953979 C212.79485096 381.89649991 253.86005229 327.79607606 260.54535294 263.97190475 C261.61725727 249.98165496 261.27795929 235.86154305 261.26096606 221.84040952 C261.25784502 217.85841229 261.26399704 213.87644955 261.27000481 209.89445728 C261.28396009 200.50796704 261.28255784 191.12156805 261.27110291 181.7350769 C261.25956521 172.06722852 261.27381208 162.39965573 261.30049938 152.73184353 C261.32264174 144.39676836 261.32929898 136.06177985 261.32342297 127.72667736 C261.32005657 122.76246086 261.32245049 117.79842199 261.339674 112.83423042 C261.35512307 108.18081245 261.35121049 103.52780649 261.33236885 98.87440491 C261.32868072 97.16920997 261.33179799 95.46398454 261.34225464 93.75881767 C261.35544802 91.42971402 261.3439345 89.1019789 261.32626343 86.77293396 C261.3259495 84.82000852 261.3259495 84.82000852 261.32562923 82.82763004 C260.60545082 77.78296745 258.50007096 74.58449606 254.45152283 71.53121948 C251.55093118 70.19497369 248.94241677 69.53770429 245.80162048 68.96188354 C244.62736511 68.73718384 243.45310974 68.51248413 242.24327087 68.28097534 C240.36563049 67.92966553 240.36563049 67.92966553 238.45005798 67.57125854 C202.58128884 60.54213459 162.58103657 46.8409102 133.46817017 23.98031616 C119.70234644 13.45258904 108.05400226 12.41216173 91.09458923 12.66500854 C88.5631418 12.66131877 86.03169741 12.65346407 83.50027466 12.64169312 C78.2291225 12.63162621 72.96015752 12.66548897 67.68955994 12.73629761 C61.64522165 12.81682533 55.60553769 12.81132357 49.56098253 12.76038885 C43.67752299 12.71298376 37.79575685 12.72891618 31.91231346 12.77140808 C29.43953374 12.78365631 26.96662264 12.78054219 24.49389076 12.76087952 C9.1595118 12.67783248 -1.25784208 14.10376263 -13.33396912 23.90751743 Z " fill="#000000" transform="translate(196.17494201660156,8.678741455078125)"/>
<path d="M0 0 C8.92377294 7.02059861 14.38030873 16.37106441 16.19140625 27.5859375 C17.53589438 38.86469901 14.85831873 49.52058118 8.47265625 58.9453125 C7.79460937 59.60644043 7.1165625 60.26756836 6.41796875 60.94873047 C3.62831656 65.24594319 3.92444771 68.90599104 3.96875 73.92578125 C3.95932877 74.8938118 3.94990753 75.86184235 3.94020081 76.85920715 C3.91157182 79.9506242 3.90847018 83.04127376 3.91015625 86.1328125 C3.90653318 89.20638697 3.89679684 92.27940031 3.86940002 95.3528595 C3.85279098 97.26171404 3.84959232 99.17075187 3.8624115 101.07963562 C3.78001366 111.66206245 1.26929947 119.15787472 -6.1171875 126.80859375 C-12.31673569 132.30478964 -19.03695202 134.34599279 -27.296875 134.14453125 C-36.90801212 133.28609343 -43.17534522 129.12179347 -49.52734375 121.9453125 C-52.97403413 116.76163568 -54.65758965 111.58131873 -54.63745117 105.39550781 C-54.63803024 104.50067688 -54.63860931 103.60584595 -54.63920593 102.68389893 C-54.6370961 101.72344666 -54.63498627 100.76299438 -54.6328125 99.7734375 C-54.64627041 97.72655197 -54.6612939 95.67967625 -54.67773438 93.6328125 C-54.70053882 90.41566956 -54.7148605 87.19963483 -54.70239258 83.98242188 C-54.69354586 80.87029084 -54.7225475 77.76034243 -54.7578125 74.6484375 C-54.74558151 73.69608215 -54.73335052 72.74372681 -54.7207489 71.76251221 C-54.83004374 65.69279208 -56.01373782 62.29615183 -60.02217102 57.69744873 C-66.18657937 50.52160572 -68.03808269 40.53290477 -67.77734375 31.29296875 C-66.58945108 20.13791413 -61.70494559 9.67787479 -53.52734375 1.9453125 C-47.98400768 -2.50821837 -42.38021779 -5.24347424 -35.52734375 -7.0546875 C-34.72296875 -7.2815625 -33.91859375 -7.5084375 -33.08984375 -7.7421875 C-20.93303365 -9.22472532 -10.15390664 -6.98355018 0 0 Z M-47.52734375 17.9453125 C-51.71297828 23.6109504 -52.76573906 29.99211585 -52.52734375 36.9453125 C-51.33916946 44.02865925 -47.51285081 50.6442222 -41.95664978 55.24627686 C-40.03827313 57.52667745 -40.1552103 58.90060797 -40.15844727 61.85644531 C-40.14812218 63.35380219 -40.14812218 63.35380219 -40.1375885 64.88140869 C-40.1437468 65.9595282 -40.14990509 67.03764771 -40.15625 68.1484375 C-40.13886201 70.43099104 -40.12127769 72.71354309 -40.10351562 74.99609375 C-40.09345482 78.59491787 -40.08984296 82.19364289 -40.09155273 85.79248047 C-40.08797515 89.26559959 -40.06059566 92.73795464 -40.03125 96.2109375 C-40.03943253 97.28096008 -40.04761505 98.35098267 -40.05604553 99.45343018 C-39.99258316 105.84577544 -39.29791071 109.72705763 -35.52734375 114.9453125 C-32.93026564 117.46818838 -30.13509831 118.82092143 -26.5078125 119.1015625 C-21.65784664 118.73062821 -18.25152566 117.14984112 -14.52734375 113.9453125 C-10.73334439 108.36886725 -11.18214211 102.99852716 -11.296875 96.51953125 C-11.29897441 94.25586025 -11.29957877 91.99218747 -11.29882812 89.72851562 C-11.31330444 86.17985452 -11.33984804 82.63252754 -11.39331055 79.08422852 C-11.43849592 75.64511992 -11.43358218 72.20885487 -11.421875 68.76953125 C-11.45070267 67.7192424 -11.47953033 66.66895355 -11.50923157 65.58683777 C-11.45157084 59.65685125 -10.67893419 56.49003429 -6.6315918 52.04223633 C-5.92689255 51.37597733 -5.2221933 50.70971832 -4.49613953 50.02326965 C-0.34999629 45.64724036 1.26737892 40.04157896 1.66015625 34.1171875 C1.27401488 25.47727439 -2.04446568 19.04084026 -8.21484375 13.0703125 C-13.38994252 8.85392768 -18.99949735 7.3862933 -25.52734375 6.5703125 C-34.89406597 7.74115278 -41.20846304 10.8011086 -47.52734375 17.9453125 Z " fill="#000000" transform="translate(281.52734375,286.0546875)"/>
</svg>
