<?xml version="1.0" standalone="no"?>
<!DOCTYPE svg PUBLIC "-//W3C//DTD SVG 20010904//EN"
 "http://www.w3.org/TR/2001/REC-SVG-20010904/DTD/svg10.dtd">
<svg version="1.0" xmlns="http://www.w3.org/2000/svg"
 width="512.000000pt" height="512.000000pt" viewBox="0 0 512.000000 512.000000"
 preserveAspectRatio="xMidYMid meet">

<g transform="translate(0.000000,512.000000) scale(0.100000,-0.100000)"
fill="#000000" stroke="none">
<path d="M1950 5114 c-205 -40 -433 -142 -687 -306 -167 -108 -278 -257 -323
-434 -25 -95 -27 -254 -5 -338 14 -55 14 -60 -2 -80 -10 -12 -19 -23 -21 -25
-1 -3 -55 48 -120 111 -70 70 -129 119 -146 124 -41 10 -80 -22 -84 -71 -3
-37 0 -41 376 -419 360 -362 381 -385 416 -458 20 -42 43 -107 51 -145 7 -37
23 -254 35 -481 l22 -413 -27 -54 c-28 -58 -78 -96 -142 -110 -28 -6 -33 -4
-37 17 -3 13 -16 218 -30 456 -19 335 -28 439 -40 457 -27 41 -91 38 -120 -7
-13 -21 -12 -73 13 -488 22 -369 31 -471 44 -495 8 -16 92 -106 186 -199 147
-147 174 -169 201 -169 41 0 73 32 73 73 0 26 -16 47 -96 128 l-96 97 51 30
c86 51 148 145 163 245 6 40 -27 759 -40 870 -5 43 -2 50 59 135 254 353 534
588 858 720 l81 33 80 -29 c311 -115 579 -339 837 -699 77 -108 81 -116 76
-155 -3 -22 -8 -99 -12 -171 -6 -125 -6 -132 15 -153 30 -30 84 -28 109 4 16
21 21 48 27 157 9 170 25 250 71 346 35 75 54 95 695 738 579 580 659 664 659
690 0 43 -32 74 -78 74 -35 0 -55 -18 -434 -397 -218 -218 -399 -395 -400
-392 -2 2 -11 13 -21 25 -16 20 -16 25 -2 80 22 84 20 243 -5 338 -27 106 -92
227 -165 305 -59 63 -246 196 -293 208 -31 8 -70 -11 -83 -41 -23 -49 -5 -71
114 -149 128 -84 191 -149 241 -248 44 -88 58 -154 54 -263 l-3 -87 -213 161
c-145 109 -220 160 -237 160 -49 0 -87 -58 -69 -104 4 -9 116 -100 251 -202
173 -132 256 -202 285 -240 l41 -54 -199 -203 c-142 -144 -209 -220 -234 -265
-19 -34 -39 -69 -45 -77 -8 -12 -26 7 -85 87 -104 140 -303 344 -428 438 -115
86 -251 165 -357 206 -38 15 -74 30 -78 34 -4 4 7 49 24 101 25 72 33 116 37
191 5 116 -5 153 -82 292 -61 110 -71 157 -53 236 l12 55 80 17 c230 49 436
48 584 -1 115 -39 143 -39 170 -5 28 36 26 60 -6 93 -31 30 -155 73 -268 92
-119 20 -382 0 -565 -44 -35 -8 -66 -10 -85 -5 -129 36 -489 69 -575 52z m400
-170 c52 -9 98 -19 102 -23 4 -3 2 -37 -4 -74 -15 -93 5 -172 80 -302 54 -94
57 -104 61 -177 2 -58 -2 -95 -18 -146 -31 -103 -60 -162 -84 -172 -207 -84
-337 -156 -484 -268 -150 -114 -324 -292 -453 -465 -49 -66 -42 -69 -100 35
-25 44 -94 122 -234 265 l-198 203 40 53 c29 38 112 109 285 240 135 103 247
194 251 202 18 47 -20 105 -69 105 -17 0 -92 -51 -238 -161 l-212 -161 -3 88
c-2 48 2 111 8 141 16 74 72 182 128 244 114 127 523 344 733 389 61 13 295 4
409 -16z"/>
<path d="M20 4698 c-11 -12 -20 -35 -20 -52 0 -25 27 -56 173 -203 170 -171
174 -174 212 -171 49 4 81 42 71 85 -5 18 -67 88 -174 196 -156 156 -170 167
-204 167 -25 0 -44 -7 -58 -22z"/>
<path d="M21 3394 c-43 -55 -39 -60 228 -329 137 -137 256 -264 265 -282 10
-19 33 -165 61 -380 48 -373 62 -443 102 -513 34 -59 805 -835 857 -862 56
-29 141 -35 204 -14 58 20 126 80 148 132 8 19 17 34 19 34 3 0 28 -17 55 -37
l50 -37 0 -172 c0 -160 -2 -174 -23 -215 -13 -24 -42 -57 -64 -72 -37 -27 -69
-33 -435 -93 -268 -43 -417 -71 -461 -88 -130 -49 -246 -141 -321 -255 -61
-93 -75 -134 -55 -169 19 -34 60 -49 93 -34 14 6 38 37 58 74 47 89 139 178
229 222 81 38 88 40 564 116 264 43 319 55 371 80 73 36 126 91 163 169 23 50
26 70 29 194 2 76 7 137 10 135 4 -2 34 -17 67 -34 33 -17 94 -44 135 -60 66
-25 88 -28 190 -28 102 0 124 3 190 28 41 16 102 43 135 60 33 17 63 32 67 34
3 2 8 -59 10 -135 3 -133 4 -141 36 -205 18 -36 51 -83 73 -103 77 -69 116
-80 519 -145 445 -72 407 -64 499 -107 90 -43 182 -131 229 -221 20 -37 44
-68 58 -74 33 -15 74 0 93 34 13 23 14 32 2 65 -36 99 -135 218 -242 288 -114
76 -166 90 -597 160 -365 59 -399 66 -435 92 -22 15 -51 48 -64 72 -21 41 -23
55 -23 215 l0 172 50 37 c27 20 52 37 55 37 2 0 11 -15 19 -34 22 -52 90 -112
148 -132 60 -20 147 -15 199 11 48 24 803 777 849 847 21 32 45 86 54 120 9
35 36 218 61 408 24 190 49 359 55 375 6 17 126 145 266 286 272 274 276 279
233 333 -14 18 -30 26 -53 26 -28 0 -60 -28 -298 -267 -239 -242 -267 -274
-286 -324 -14 -38 -35 -166 -62 -375 -50 -391 -56 -428 -82 -478 -22 -45 -754
-788 -800 -812 -46 -24 -86 -18 -124 20 -38 38 -44 78 -20 124 8 15 148 160
311 322 163 162 304 309 312 325 13 24 22 126 44 495 25 415 26 467 13 488
-29 45 -93 48 -120 7 -12 -18 -21 -122 -40 -457 -14 -238 -27 -443 -30 -456
-4 -21 -9 -23 -37 -17 -57 12 -108 48 -135 95 -26 44 -27 49 -25 186 2 129 1
142 -18 162 -26 29 -81 29 -108 1 -16 -17 -20 -42 -26 -147 -11 -212 28 -309
157 -392 l57 -37 -252 -250 c-259 -256 -356 -340 -511 -445 -170 -114 -301
-168 -408 -168 -150 0 -385 130 -654 362 -62 54 -124 100 -138 104 -20 5 -32
-1 -57 -25 -36 -36 -34 -68 5 -111 58 -62 62 -116 12 -166 -38 -38 -78 -44
-124 -20 -46 24 -778 767 -800 812 -26 50 -32 87 -82 478 -27 209 -48 337 -62
375 -19 50 -47 82 -286 324 -238 239 -270 267 -298 267 -23 0 -39 -8 -53 -26z"/>
<path d="M1925 3059 c-98 -19 -200 -53 -222 -72 -31 -28 -30 -77 1 -106 28
-27 37 -26 166 10 124 35 260 33 351 -4 36 -15 74 -27 85 -27 44 1 79 56 62
99 -12 35 -33 48 -123 77 -90 29 -236 40 -320 23z"/>
<path d="M2945 3056 c-115 -27 -176 -55 -190 -89 -21 -49 11 -106 59 -107 11
0 49 12 85 27 91 37 227 39 351 4 129 -36 138 -37 166 -10 31 29 32 78 2 107
-59 55 -349 97 -473 68z"/>
<path d="M1753 2580 c-46 -19 -56 -74 -20 -114 29 -34 154 -66 257 -66 103 0
228 32 258 66 36 41 28 85 -19 109 -26 14 -36 13 -101 -5 -86 -24 -183 -26
-258 -5 -90 24 -94 25 -117 15z"/>
<path d="M2895 2578 c-50 -27 -58 -72 -22 -112 29 -34 154 -66 257 -66 103 0
228 32 258 66 37 42 26 92 -25 113 -23 9 -37 8 -73 -5 -77 -27 -203 -30 -293
-5 -42 11 -78 21 -80 21 -1 0 -11 -6 -22 -12z"/>
<path d="M2327 2088 c-38 -30 -38 -95 1 -124 27 -21 145 -44 219 -44 87 0 191
25 220 52 30 28 31 80 1 108 -26 24 -46 25 -112 5 -27 -8 -77 -15 -111 -15
-34 0 -84 7 -111 15 -60 18 -85 19 -107 3z"/>
<path d="M2203 1689 c-24 -9 -53 -46 -53 -70 0 -30 40 -67 90 -84 62 -21 175
-21 246 0 49 14 59 14 110 -1 108 -31 265 -13 309 37 22 23 24 71 5 95 -25 29
-58 35 -98 18 -51 -21 -116 -21 -200 1 -62 16 -78 17 -124 6 -125 -31 -146
-31 -233 -3 -17 5 -40 6 -52 1z"/>
</g>
</svg>
