<?xml version="1.0" standalone="no"?>
<!DOCTYPE svg PUBLIC "-//W3C//DTD SVG 20010904//EN"
 "http://www.w3.org/TR/2001/REC-SVG-20010904/DTD/svg10.dtd">
<svg version="1.0" xmlns="http://www.w3.org/2000/svg"
 width="512.000000pt" height="512.000000pt" viewBox="0 0 512.000000 512.000000"
 preserveAspectRatio="xMidYMid meet">

<g transform="translate(0.000000,512.000000) scale(0.100000,-0.100000)"
fill="#000000" stroke="none">
<path d="M957 4949 c-33 -19 -36 -50 -11 -117 49 -128 26 -214 -82 -309 -71
-63 -80 -89 -39 -121 27 -22 30 -21 125 13 30 11 66 16 106 13 74 -5 128 -37
183 -111 41 -55 70 -66 106 -43 31 20 32 48 3 112 -29 67 -30 155 0 211 12 22
48 64 81 93 67 59 74 70 61 105 -14 37 -47 39 -132 11 -89 -30 -109 -31 -171
-10 -42 14 -69 37 -164 140 -24 26 -38 29 -66 13z m176 -262 c18 -8 49 -17 70
-21 31 -6 37 -10 31 -24 -4 -9 -14 -43 -22 -74 l-15 -57 -28 15 c-16 8 -48 17
-72 20 l-44 6 18 49 c11 27 19 60 19 74 0 29 1 29 43 12z"/>
<path d="M4504 4870 c-143 -34 -198 -206 -101 -317 39 -45 82 -63 147 -63 111
0 190 79 190 190 0 89 -52 161 -134 185 -54 16 -56 16 -102 5z m99 -137 c21
-20 22 -71 1 -101 -23 -33 -86 -31 -113 4 -24 30 -26 43 -10 78 21 46 81 55
122 19z"/>
<path d="M1937 4612 c-24 -27 -21 -65 8 -92 l24 -23 -24 -29 c-30 -35 -32 -69
-7 -91 27 -24 65 -21 92 8 l23 24 29 -24 c35 -30 69 -32 91 -7 24 27 21 65 -8
92 l-24 23 24 29 c30 35 32 69 7 91 -27 24 -65 21 -92 -8 l-23 -24 -29 24
c-35 30 -69 32 -91 7z"/>
<path d="M3333 4245 c-154 -20 -383 -67 -531 -109 -151 -44 -391 -132 -414
-154 -27 -23 -23 -68 7 -88 23 -15 28 -14 82 6 420 160 819 240 1193 240 259
0 486 -39 683 -117 48 -19 97 -33 109 -31 33 4 55 49 41 81 -20 44 -244 120
-478 163 -126 23 -539 28 -692 9z"/>
<path d="M3963 3971 c-90 -57 -79 -192 19 -229 106 -41 207 59 167 165 -28 72
-122 104 -186 64z"/>
<path d="M4702 3914 c-41 -29 -29 -63 49 -144 39 -40 93 -107 120 -149 75
-117 78 -121 104 -121 28 0 65 32 65 55 0 55 -169 285 -254 347 -45 32 -53 34
-84 12z"/>
<path d="M2045 3822 c-474 -267 -824 -609 -1013 -987 -99 -198 -144 -370 -145
-557 -1 -91 2 -111 18 -128 23 -26 59 -26 85 0 17 17 20 33 20 124 0 347 168
678 516 1016 182 177 389 328 619 452 91 48 100 56 103 84 4 38 -19 64 -56 64
-15 0 -81 -31 -147 -68z"/>
<path d="M610 3780 c-18 -18 -20 -28 -14 -99 6 -70 4 -83 -16 -120 -23 -40
-74 -81 -118 -95 -30 -10 -55 -50 -47 -76 12 -38 44 -50 103 -38 96 19 171
-20 219 -116 28 -57 38 -66 70 -66 43 0 56 26 48 105 -10 114 18 166 117 216
66 33 81 63 53 105 -16 25 -19 25 -90 19 -46 -5 -86 -3 -107 4 -42 14 -92 64
-112 113 -16 37 -49 68 -73 68 -7 0 -22 -9 -33 -20z m142 -257 c18 -10 34 -18
36 -19 1 -1 -8 -19 -21 -42 l-23 -41 -34 22 c-19 11 -36 22 -38 23 -5 3 32 74
39 74 4 0 22 -8 41 -17z"/>
<path d="M3023 3649 c-98 -14 -318 -73 -428 -114 -327 -122 -632 -324 -820
-542 -86 -100 -155 -213 -155 -253 0 -35 38 -65 69 -55 12 3 51 52 88 107 205
312 618 579 1078 698 61 16 148 34 195 40 49 7 92 18 103 27 24 23 22 68 -5
87 -25 17 -33 18 -125 5z"/>
<path d="M3457 3642 c-21 -23 -22 -66 -2 -85 8 -8 38 -18 67 -22 141 -19 314
-89 417 -168 226 -174 296 -521 174 -861 -133 -370 -473 -754 -905 -1022 -280
-173 -651 -329 -976 -409 -90 -22 -116 -32 -128 -51 -19 -28 -11 -59 20 -79
20 -13 34 -12 145 15 316 77 668 222 954 391 555 329 965 832 1051 1289 21
107 20 289 0 388 -65 315 -307 539 -661 611 -124 26 -136 26 -156 3z"/>
<path d="M4527 3412 c-24 -27 -21 -52 14 -108 247 -387 233 -863 -37 -1227
-62 -82 -68 -117 -29 -143 36 -23 63 -9 118 61 99 126 179 301 219 479 25 111
30 333 9 446 -28 153 -112 360 -190 468 -35 47 -75 56 -104 24z"/>
<path d="M2908 3289 c-48 -4 -136 -19 -195 -34 -493 -124 -864 -466 -867 -800
0 -96 13 -147 57 -211 112 -168 358 -216 642 -127 211 66 390 204 465 357 72
146 38 335 -55 312 -36 -9 -51 -45 -36 -87 60 -174 -154 -400 -454 -480 -106
-28 -258 -31 -333 -5 -134 45 -196 169 -158 314 69 270 368 507 772 613 115
30 324 37 433 15 254 -52 382 -218 364 -472 -5 -69 -4 -73 20 -89 29 -19 56
-14 82 15 25 28 26 201 1 285 -52 174 -175 298 -358 359 -58 20 -258 51 -287
45 -3 -1 -45 -5 -93 -10z"/>
<path d="M2790 3060 c-163 -22 -349 -117 -428 -217 -59 -76 -77 -122 -77 -203
0 -135 64 -206 176 -197 100 8 224 90 264 173 35 75 11 157 -55 184 -30 12
-119 10 -170 -6 -20 -6 -18 -1 15 26 183 148 488 166 623 37 96 -92 103 -209
22 -374 -91 -185 -314 -360 -575 -453 -251 -88 -479 -103 -666 -43 -71 23
-166 88 -205 140 -61 80 -78 143 -77 281 1 118 0 123 -22 138 -30 19 -60 11
-82 -23 -24 -36 -23 -217 1 -298 28 -93 74 -171 134 -226 196 -179 543 -217
901 -100 225 74 402 180 546 325 126 128 192 247 214 386 33 203 -87 381 -291
434 -72 18 -181 26 -248 16z"/>
<path d="M3866 2770 c-143 -44 -109 -250 42 -250 38 0 50 5 83 39 33 33 39 45
39 82 0 94 -78 155 -164 129z"/>
<path d="M442 2742 c-21 -21 -58 -147 -74 -251 -15 -96 -4 -299 23 -401 59
-232 202 -450 380 -585 71 -53 110 -59 135 -20 23 35 11 58 -61 115 -169 135
-287 318 -341 530 -15 59 -19 108 -18 230 1 138 4 165 27 243 32 103 33 119 9
140 -24 22 -58 21 -80 -1z"/>
<path d="M3341 2238 c-164 -190 -322 -311 -556 -428 -316 -157 -605 -229 -920
-230 -309 0 -504 65 -672 222 -45 43 -88 78 -95 78 -28 0 -58 -31 -58 -61 0
-58 139 -179 296 -255 335 -164 829 -144 1314 51 298 120 586 316 746 507 75
89 81 106 53 141 -31 40 -56 34 -108 -25z"/>
<path d="M1300 2138 c-34 -18 -70 -75 -70 -110 0 -85 80 -150 158 -129 99 27
132 136 63 213 -22 25 -37 31 -77 35 -29 2 -59 -1 -74 -9z"/>
<path d="M154 1595 c-16 -24 -16 -28 2 -68 53 -118 175 -262 303 -358 180
-134 421 -229 707 -280 109 -20 164 -23 359 -24 202 0 234 2 257 17 36 23 44
53 23 85 l-17 25 -146 -7 c-415 -20 -802 70 -1067 248 -88 59 -223 200 -280
292 -27 44 -54 83 -60 87 -23 17 -65 8 -81 -17z"/>
<path d="M3925 1341 c-84 -39 -135 -120 -135 -215 0 -202 249 -303 390 -157
73 74 89 165 46 257 -53 114 -190 166 -301 115z m167 -130 c29 -26 33 -35 33
-81 0 -46 -4 -55 -33 -81 -47 -43 -102 -41 -148 5 -27 27 -34 42 -34 73 1 71
42 112 112 113 28 0 46 -8 70 -29z"/>
<path d="M2867 762 c-24 -27 -21 -65 8 -92 l24 -23 -24 -29 c-14 -16 -25 -40
-25 -53 0 -55 69 -74 110 -30 l24 25 26 -25 c31 -29 70 -32 93 -7 24 26 21 56
-7 89 l-24 28 24 28 c28 33 30 54 8 85 -21 30 -64 29 -94 -3 l-23 -24 -32 24
c-38 30 -66 32 -88 7z"/>
<path d="M4505 634 l-38 -25 -21 20 c-25 23 -75 28 -94 9 -21 -21 -14 -72 13
-98 l25 -24 -25 -26 c-29 -31 -32 -70 -7 -93 26 -24 56 -21 89 7 l28 24 30
-24 c35 -28 52 -30 83 -8 30 21 28 61 -5 96 l-27 28 27 28 c39 41 35 77 -10
101 -28 14 -24 15 -68 -15z"/>
</g>
</svg>
