<?xml version="1.0" standalone="no"?>
<!DOCTYPE svg PUBLIC "-//W3C//DTD SVG 20010904//EN"
 "http://www.w3.org/TR/2001/REC-SVG-20010904/DTD/svg10.dtd">
<svg version="1.0" xmlns="http://www.w3.org/2000/svg"
 width="512.000000pt" height="512.000000pt" viewBox="0 0 512.000000 512.000000"
 preserveAspectRatio="xMidYMid meet">

<g transform="translate(0.000000,512.000000) scale(0.100000,-0.100000)"
fill="#000000" stroke="none">
<path d="M2610 5111 c-53 -17 -113 -54 -146 -89 -48 -51 -1704 -2776 -1721
-2831 -44 -147 27 -310 165 -378 l57 -28 668 -3 668 -3 -5 -27 c-3 -15 -47
-342 -97 -727 -63 -490 -89 -715 -84 -749 13 -102 71 -185 167 -236 56 -31 71
-34 143 -35 102 0 171 30 234 101 61 69 1707 2776 1720 2830 38 151 -31 304
-167 371 l-57 28 -667 3 -667 3 4 27 c3 15 46 342 96 727 63 489 89 715 84
749 -13 103 -84 199 -180 245 -54 26 -169 37 -215 22z m-27 -1138 l-105 -812
23 -48 c15 -30 37 -55 59 -68 34 -19 56 -20 772 -25 l738 -5 -816 -1343 c-449
-738 -818 -1341 -820 -1340 -1 2 45 369 103 815 l106 812 -24 48 c-15 30 -37
55 -59 68 -34 19 -56 20 -772 25 l-738 5 817 1342 c449 739 818 1341 819 1340
2 -1 -45 -368 -103 -814z"/>
</g>
</svg>
