<?xml version="1.0" encoding="UTF-8"?>
<svg version="1.1" xmlns="http://www.w3.org/2000/svg" width="512" height="512">
<path d="M0 0 C0.87173859 -0.0099852 1.74347717 -0.0199704 2.64163208 -0.03025818 C4.48581191 -0.04544438 6.33007412 -0.05248381 8.17431641 -0.05200195 C10.99129731 -0.05855533 13.80473812 -0.1130034 16.62109375 -0.16992188 C18.41405046 -0.1787259 20.2070239 -0.18467881 22 -0.1875 C23.25960037 -0.21983482 23.25960037 -0.21983482 24.54464722 -0.25282288 C30.24779037 -0.18625558 30.24779037 -0.18625558 32.75401306 1.76815796 C35.72554121 5.21988527 37.40474451 9.00878556 38.9453125 13.25390625 C39.36425781 14.383125 39.78320312 15.51234375 40.21484375 16.67578125 C41.1328125 19.50390625 41.1328125 19.50390625 41.1328125 21.50390625 C42.6796875 21.81328125 42.6796875 21.81328125 44.2578125 22.12890625 C49.70889389 23.4406638 54.63786246 25.9433397 59.66796875 28.359375 C64.67194143 30.01232201 68.19451697 29.33992932 72.9765625 27.27734375 C74.29140625 26.58511719 74.29140625 26.58511719 75.6328125 25.87890625 C79.01300462 24.30179069 81.05408726 23.50924355 84.8203125 23.25390625 C92.80485393 26.26694075 99.06268175 34.25149052 105.0078125 40.19140625 C106.14476562 41.30999023 106.14476562 41.30999023 107.3046875 42.45117188 C108.39136719 43.53495117 108.39136719 43.53495117 109.5 44.640625 C110.47622314 45.61068481 110.47622314 45.61068481 111.47216797 46.6003418 C114.07051054 49.57877123 115.15329218 51.52088175 115.0703125 55.50390625 C114.27751378 60.15030889 112.10426953 64.31252835 110.09375 68.5390625 C108.17312625 74.46488944 110.65408573 79.06977449 113.1328125 84.50390625 C115.13158917 88.88583971 116.54844315 92.71207755 117.1328125 97.50390625 C117.761875 97.6740625 118.3909375 97.84421875 119.0390625 98.01953125 C133.59269981 102.1401394 133.59269981 102.1401394 138.1328125 107.50390625 C138.46792809 110.52839487 138.62473622 113.34256881 138.63671875 116.37109375 C138.64670395 117.24283234 138.65668915 118.11457092 138.66697693 119.01272583 C138.68216313 120.85690566 138.68920256 122.70116787 138.6887207 124.54541016 C138.69527408 127.36239106 138.74972215 130.17583187 138.80664062 132.9921875 C138.81544465 134.78514421 138.82139756 136.57811765 138.82421875 138.37109375 C138.8457753 139.21082733 138.86733185 140.05056091 138.88954163 140.91574097 C138.82297433 146.61888412 138.82297433 146.61888412 136.86856079 149.12510681 C133.41683348 152.09663496 129.62793319 153.77583826 125.3828125 155.31640625 C123.68898438 155.94482422 123.68898438 155.94482422 121.9609375 156.5859375 C119.1328125 157.50390625 119.1328125 157.50390625 117.1328125 157.50390625 C116.9265625 158.53515625 116.7203125 159.56640625 116.5078125 160.62890625 C115.19605495 166.07998764 112.69337905 171.00895621 110.27734375 176.0390625 C108.62439674 181.04303518 109.29678943 184.56561072 111.359375 189.34765625 C112.05160156 190.6625 112.05160156 190.6625 112.7578125 192.00390625 C114.33492806 195.38409837 115.1274752 197.42518101 115.3828125 201.19140625 C112.369778 209.17594768 104.38522823 215.4337755 98.4453125 221.37890625 C97.69958984 222.136875 96.95386719 222.89484375 96.18554688 223.67578125 C95.46302734 224.40023437 94.74050781 225.1246875 93.99609375 225.87109375 C93.34938721 226.52190918 92.70268066 227.17272461 92.03637695 227.84326172 C89.05794752 230.44160429 87.115837 231.52438593 83.1328125 231.44140625 C78.48640986 230.64860753 74.3241904 228.47536328 70.09765625 226.46484375 C64.17182931 224.54422 59.56694426 227.02517948 54.1328125 229.50390625 C49.75087904 231.50268292 45.9246412 232.9195369 41.1328125 233.50390625 C40.96265625 234.13296875 40.7925 234.76203125 40.6171875 235.41015625 C36.49657935 249.96379356 36.49657935 249.96379356 31.1328125 254.50390625 C28.10832388 254.83902184 25.29414994 254.99582997 22.265625 255.0078125 C21.39388641 255.0177977 20.52214783 255.0277829 19.62399292 255.03807068 C17.77981309 255.05325688 15.93555088 255.06029631 14.09130859 255.05981445 C11.27432769 255.06636783 8.46088688 255.1208159 5.64453125 255.17773438 C3.85157454 255.1865384 2.0586011 255.19249131 0.265625 255.1953125 C-0.57410858 255.21686905 -1.41384216 255.2384256 -2.27902222 255.26063538 C-7.98216537 255.19406808 -7.98216537 255.19406808 -10.48838806 253.23965454 C-13.45991621 249.78792723 -15.13911951 245.99902694 -16.6796875 241.75390625 C-17.30810547 240.06007813 -17.30810547 240.06007813 -17.94921875 238.33203125 C-18.8671875 235.50390625 -18.8671875 235.50390625 -18.8671875 233.50390625 C-19.8984375 233.29765625 -20.9296875 233.09140625 -21.9921875 232.87890625 C-27.44326889 231.5671487 -32.37223746 229.0644728 -37.40234375 226.6484375 C-42.40631643 224.99549049 -45.92889197 225.66788318 -50.7109375 227.73046875 C-51.5875 228.19195312 -52.4640625 228.6534375 -53.3671875 229.12890625 C-56.74737962 230.70602181 -58.78846226 231.49856895 -62.5546875 231.75390625 C-70.53922893 228.74087175 -76.79705675 220.75632198 -82.7421875 214.81640625 C-83.50015625 214.07068359 -84.258125 213.32496094 -85.0390625 212.55664062 C-85.76351562 211.83412109 -86.48796875 211.11160156 -87.234375 210.3671875 C-87.88519043 209.72048096 -88.53600586 209.07377441 -89.20654297 208.4074707 C-91.80488554 205.42904127 -92.88766718 203.48693075 -92.8046875 199.50390625 C-92.01188878 194.85750361 -89.83864453 190.69528415 -87.828125 186.46875 C-85.90750125 180.54292306 -88.38846073 175.93803801 -90.8671875 170.50390625 C-92.86596417 166.12197279 -94.28281815 162.29573495 -94.8671875 157.50390625 C-95.49625 157.33375 -96.1253125 157.16359375 -96.7734375 156.98828125 C-111.32707481 152.8676731 -111.32707481 152.8676731 -115.8671875 147.50390625 C-116.20230309 144.47941763 -116.35911122 141.66524369 -116.37109375 138.63671875 C-116.38107895 137.76498016 -116.39106415 136.89324158 -116.40135193 135.99508667 C-116.41653813 134.15090684 -116.42357756 132.30664463 -116.4230957 130.46240234 C-116.42964908 127.64542144 -116.48409715 124.83198063 -116.54101562 122.015625 C-116.54981965 120.22266829 -116.55577256 118.42969485 -116.55859375 116.63671875 C-116.5801503 115.79698517 -116.60170685 114.95725159 -116.62391663 114.09207153 C-116.55734933 108.38892838 -116.55734933 108.38892838 -114.60293579 105.88270569 C-111.15120848 102.91117754 -107.36230819 101.23197424 -103.1171875 99.69140625 C-101.98796875 99.27246094 -100.85875 98.85351562 -99.6953125 98.421875 C-96.8671875 97.50390625 -96.8671875 97.50390625 -94.8671875 97.50390625 C-94.5578125 95.95703125 -94.5578125 95.95703125 -94.2421875 94.37890625 C-92.93042995 88.92782486 -90.42775405 83.99885629 -88.01171875 78.96875 C-86.35877174 73.96477732 -87.03116443 70.44220178 -89.09375 65.66015625 C-89.55523437 64.78359375 -90.01671875 63.90703125 -90.4921875 63.00390625 C-92.06930306 59.62371413 -92.8618502 57.58263149 -93.1171875 53.81640625 C-90.104153 45.83186482 -82.11960323 39.574037 -76.1796875 33.62890625 C-75.43396484 32.8709375 -74.68824219 32.11296875 -73.91992188 31.33203125 C-72.83614258 30.24535156 -72.83614258 30.24535156 -71.73046875 29.13671875 C-71.08376221 28.48590332 -70.43705566 27.83508789 -69.77075195 27.16455078 C-66.79232252 24.56620821 -64.850212 23.48342657 -60.8671875 23.56640625 C-56.22078486 24.35920497 -52.0585654 26.53244922 -47.83203125 28.54296875 C-41.90620431 30.4635925 -37.30131926 27.98263302 -31.8671875 25.50390625 C-27.48525404 23.50512958 -23.6590162 22.0882756 -18.8671875 21.50390625 C-18.69703125 20.87484375 -18.526875 20.24578125 -18.3515625 19.59765625 C-12.81718669 0.05071191 -12.81718669 0.05071191 0 0 Z M1.1328125 17.50390625 C0.50155853 18.91229222 -0.12839178 20.32126253 -0.7578125 21.73046875 C-1.10875977 22.51502441 -1.45970703 23.29958008 -1.82128906 24.10791016 C-2.50900767 25.6833701 -3.17287048 27.26949849 -3.81030273 28.8659668 C-5.41539944 32.87020957 -6.30864671 34.2297135 -10.3046875 36.19140625 C-11.82329688 36.63656447 -13.34447412 37.07299531 -14.8671875 37.50390625 C-16.95845869 38.25293671 -19.04127053 39.02581751 -21.1171875 39.81640625 C-22.22835937 40.23792969 -23.33953125 40.65945312 -24.484375 41.09375 C-27.86625659 42.50351819 -31.02005935 44.13863403 -34.2421875 45.87890625 C-37.66762259 47.61177341 -39.56240035 48.48786482 -43.4296875 48.69140625 C-47.58021391 47.25758804 -51.42970101 45.40674569 -55.31640625 43.3671875 C-57.74655108 42.29097997 -57.74655108 42.29097997 -59.80859375 42.9765625 C-62.86954195 45.24758858 -65.46781983 47.89714197 -68.1171875 50.62890625 C-68.67148438 51.19222656 -69.22578125 51.75554687 -69.796875 52.3359375 C-71.15823235 53.72076653 -72.51333609 55.11173829 -73.8671875 56.50390625 C-72.45903962 60.94498801 -70.72186305 64.94175492 -68.57421875 69.0625 C-66.71465782 75.4836358 -69.83095848 81.04318826 -72.6796875 86.62890625 C-75.82876143 92.99539096 -78.16841971 99.05479118 -79.8828125 105.96484375 C-81.07883069 109.0498113 -82.0080387 109.87840033 -84.8671875 111.50390625 C-87.07315324 112.4358527 -89.30515231 113.30768736 -91.5546875 114.12890625 C-95.49804741 115.32161445 -95.49804741 115.32161445 -98.8671875 117.50390625 C-98.95388182 118.99262485 -98.97422244 120.48535125 -98.96484375 121.9765625 C-98.96162109 122.87568359 -98.95839844 123.77480469 -98.95507812 124.70117188 C-98.94669922 125.64669922 -98.93832031 126.59222656 -98.9296875 127.56640625 C-98.92517578 128.51580078 -98.92066406 129.46519531 -98.91601562 130.44335938 C-98.9041886 132.7969369 -98.88770775 135.15039102 -98.8671875 137.50390625 C-97.45880153 138.13516022 -96.04983122 138.76511053 -94.640625 139.39453125 C-93.85606934 139.74547852 -93.07151367 140.09642578 -92.26318359 140.45800781 C-90.68772365 141.14572642 -89.10159526 141.80958923 -87.50512695 142.44702148 C-83.50088418 144.05211819 -82.14138025 144.94536546 -80.1796875 148.94140625 C-79.73452928 150.46001563 -79.29809844 151.98119287 -78.8671875 153.50390625 C-78.11815704 155.59517744 -77.34527624 157.67798928 -76.5546875 159.75390625 C-76.13316406 160.86507812 -75.71164063 161.97625 -75.27734375 163.12109375 C-73.86757556 166.50297534 -72.23245972 169.6567781 -70.4921875 172.87890625 C-68.75932034 176.30434134 -67.88322893 178.1991191 -67.6796875 182.06640625 C-69.11350571 186.21693266 -70.96434806 190.06641976 -73.00390625 193.953125 C-74.08011378 196.38326983 -74.08011378 196.38326983 -73.39453125 198.4453125 C-71.12350517 201.5062607 -68.47395178 204.10453858 -65.7421875 206.75390625 C-65.17886719 207.30820312 -64.61554688 207.8625 -64.03515625 208.43359375 C-62.65032722 209.7949511 -61.25935546 211.15005484 -59.8671875 212.50390625 C-55.42610574 211.09575837 -51.42933883 209.3585818 -47.30859375 207.2109375 C-40.88745795 205.35137657 -35.32790549 208.46767723 -29.7421875 211.31640625 C-23.37570279 214.46548018 -17.31630257 216.80513846 -10.40625 218.51953125 C-7.32128245 219.71554944 -6.49269342 220.64475745 -4.8671875 223.50390625 C-3.93524105 225.70987199 -3.06340639 227.94187106 -2.2421875 230.19140625 C-1.0494793 234.13476616 -1.0494793 234.13476616 1.1328125 237.50390625 C2.6215311 237.59060057 4.1142575 237.61094119 5.60546875 237.6015625 C6.50458984 237.59833984 7.40371094 237.59511719 8.33007812 237.59179688 C9.27560547 237.58341797 10.22113281 237.57503906 11.1953125 237.56640625 C12.14470703 237.56189453 13.09410156 237.55738281 14.07226562 237.55273438 C16.42584315 237.54090735 18.77929727 237.5244265 21.1328125 237.50390625 C21.76406647 236.09552028 22.39401678 234.68654997 23.0234375 233.27734375 C23.37438477 232.49278809 23.72533203 231.70823242 24.08691406 230.89990234 C24.77463267 229.3244424 25.43849548 227.73831401 26.07592773 226.1418457 C27.68102444 222.13760293 28.57427171 220.778099 32.5703125 218.81640625 C34.08892188 218.37124803 35.61009912 217.93481719 37.1328125 217.50390625 C39.22408369 216.75487579 41.30689553 215.98199499 43.3828125 215.19140625 C44.49398437 214.76988281 45.60515625 214.34835937 46.75 213.9140625 C50.13188159 212.50429431 53.28568435 210.86917847 56.5078125 209.12890625 C59.93324759 207.39603909 61.82802535 206.51994768 65.6953125 206.31640625 C69.84583891 207.75022446 73.69532601 209.60106681 77.58203125 211.640625 C80.01217608 212.71683253 80.01217608 212.71683253 82.07421875 212.03125 C85.13516695 209.76022392 87.73344483 207.11067053 90.3828125 204.37890625 C91.21425781 203.53392578 91.21425781 203.53392578 92.0625 202.671875 C93.42385735 201.28704597 94.77896109 199.89607421 96.1328125 198.50390625 C94.72466462 194.06282449 92.98748805 190.06605758 90.83984375 185.9453125 C88.98028282 179.5241767 92.09658348 173.96462424 94.9453125 168.37890625 C98.09438643 162.01242154 100.43404471 155.95302132 102.1484375 149.04296875 C103.34445569 145.9580012 104.2736637 145.12941217 107.1328125 143.50390625 C109.33877824 142.5719598 111.57077731 141.70012514 113.8203125 140.87890625 C117.76367241 139.68619805 117.76367241 139.68619805 121.1328125 137.50390625 C121.21950682 136.01518765 121.23984744 134.52246125 121.23046875 133.03125 C121.22724609 132.13212891 121.22402344 131.23300781 121.22070312 130.30664062 C121.21232422 129.36111328 121.20394531 128.41558594 121.1953125 127.44140625 C121.18854492 126.01731445 121.18854492 126.01731445 121.18164062 124.56445312 C121.1698136 122.2108756 121.15333275 119.85742148 121.1328125 117.50390625 C119.72442653 116.87265228 118.31545622 116.24270197 116.90625 115.61328125 C116.12169434 115.26233398 115.33713867 114.91138672 114.52880859 114.54980469 C112.95334865 113.86208608 111.36722026 113.19822327 109.77075195 112.56079102 C105.76650918 110.95569431 104.40700525 110.06244704 102.4453125 106.06640625 C102.00015428 104.54779687 101.56372344 103.02661963 101.1328125 101.50390625 C100.38378204 99.41263506 99.61090124 97.32982322 98.8203125 95.25390625 C98.39878906 94.14273438 97.97726562 93.0315625 97.54296875 91.88671875 C96.13320056 88.50483716 94.49808472 85.3510344 92.7578125 82.12890625 C91.02494534 78.70347116 90.14885393 76.8086934 89.9453125 72.94140625 C91.37913071 68.79087984 93.22997306 64.94139274 95.26953125 61.0546875 C96.34573878 58.62454267 96.34573878 58.62454267 95.66015625 56.5625 C93.38913017 53.5015518 90.73957678 50.90327392 88.0078125 48.25390625 C87.16283203 47.42246094 87.16283203 47.42246094 86.30078125 46.57421875 C84.91595222 45.2128614 83.52498046 43.85775766 82.1328125 42.50390625 C81.04742187 42.94863281 79.96203125 43.39335937 78.84375 43.8515625 C77.39873837 44.42393724 75.95340876 44.99550966 74.5078125 45.56640625 C73.79496094 45.86095703 73.08210937 46.15550781 72.34765625 46.45898438 C67.10840333 48.50181235 63.64406052 48.9861134 58.28613281 46.72436523 C56.19205959 45.75372295 54.13140432 44.73014782 52.0703125 43.69140625 C45.68532757 40.55243478 39.59290969 38.20539872 32.671875 36.48828125 C29.58690745 35.29226306 28.75831842 34.36305505 27.1328125 31.50390625 C26.20086605 29.29794051 25.32903139 27.06594144 24.5078125 24.81640625 C23.3151043 20.87304634 23.3151043 20.87304634 21.1328125 17.50390625 C19.6440939 17.41721193 18.1513675 17.39687131 16.66015625 17.40625 C15.31147461 17.41108398 15.31147461 17.41108398 13.93554688 17.41601562 C12.99001953 17.42439453 12.04449219 17.43277344 11.0703125 17.44140625 C10.12091797 17.44591797 9.17152344 17.45042969 8.19335938 17.45507812 C5.83978185 17.46690515 3.48632773 17.483386 1.1328125 17.50390625 Z " fill="#000000" transform="translate(244.8671875,128.49609375)"/>
<path d="M0 0 C9.882726 9.22960671 16.50818279 21.07511508 20.49609375 33.91015625 C20.74101562 34.69132812 20.9859375 35.4725 21.23828125 36.27734375 C25.56750546 53.41632728 22.577675 73.43051058 14.49609375 88.91015625 C3.21289235 107.5691469 -12.08904387 119.70357314 -33.12890625 125.65234375 C-51.84253643 129.81726754 -72.44781298 126.80525265 -88.82421875 116.90234375 C-104.98537003 106.38016374 -115.77344378 92.32949989 -121.50390625 73.91015625 C-121.74882812 73.14058594 -121.99375 72.37101562 -122.24609375 71.578125 C-126.93928254 53.22325653 -123.17109217 33.52705031 -114.42578125 17.1015625 C-111.53495168 12.30114022 -108.24492156 8.07184798 -104.50390625 3.91015625 C-103.98570312 3.29914063 -103.4675 2.688125 -102.93359375 2.05859375 C-75.63683153 -27.98156166 -29.11221365 -24.29802543 0 0 Z M-90.50390625 13.91015625 C-103.19989212 28.46154892 -107.69226236 42.93418409 -106.50390625 61.91015625 C-104.29418841 76.43115922 -96.20873033 89.67685106 -84.75390625 98.66015625 C-70.91565571 108.55942911 -56.26851355 112.0047704 -39.44921875 109.4453125 C-22.96138075 105.40698696 -10.60977651 96.01983483 -1.50390625 81.91015625 C5.62109507 69.18570133 7.5325549 55.07720547 4.37109375 40.78515625 C-0.11594101 25.0385997 -8.83130964 13.72290626 -22.50390625 4.91015625 C-44.60434924 -7.31498785 -72.18740064 -3.90951829 -90.50390625 13.91015625 Z " fill="#000000" transform="translate(306.50390625,202.08984375)"/>
<path d="M0 0 C12.54689284 9.09904749 21.82298498 21.13706692 24.40234375 36.7421875 C26.00050252 54.35047249 23.36735196 69.11569248 12.40234375 83.3359375 C2.60046321 94.95816728 -10.17733732 101.53247199 -25.171875 103.48828125 C-41.57141913 104.70375487 -56.19367667 99.99305282 -69.0703125 89.78125 C-80.90722778 78.85799027 -86.78487062 64.20923303 -87.59375 48.32421875 C-87.61162743 31.93061339 -81.52950476 18.53618355 -70.57421875 6.5234375 C-52.01931604 -11.41066921 -21.51827625 -14.02001143 0 0 Z M-59.53515625 19.9921875 C-66.68495746 27.72485294 -70.50621352 36.87811295 -70.62890625 47.4296875 C-70.00822986 58.353592 -66.33649498 67.91473612 -58.59765625 75.7421875 C-49.78185667 83.24437456 -40.23060318 86.99337124 -28.59765625 86.7421875 C-16.20921913 84.96561265 -6.39318708 79.59235437 1.40234375 69.7421875 C7.47678042 58.92390505 9.43278782 47.45824009 6.6015625 35.3046875 C2.30023646 23.95273424 -5.80795388 16.02580464 -16.59765625 10.7421875 C-31.50227075 4.35449557 -48.00324124 9.1869935 -59.53515625 19.9921875 Z " fill="#000000" transform="translate(479.59765625,16.2578125)"/>
<path d="M0 0 C11.88838768 12.68760702 14.83355217 27.41354158 14.6015625 44.12109375 C14.1035319 58.28399383 7.468045 69.92837747 -2.0703125 80.08984375 C-14.99418433 91.94802899 -29.59917469 95.43276223 -46.6328125 94.86328125 C-61.81495348 93.9633892 -74.42571081 86.43684656 -84.67578125 75.48046875 C-94.83624722 62.19221115 -98.82883003 47.53249205 -97.20703125 30.890625 C-95.00394831 16.74877639 -87.95223351 3.42845004 -76.67578125 -5.51953125 C-69.32952879 -10.59098787 -61.48535053 -14.75157309 -52.67578125 -16.51953125 C-51.97582031 -16.66003906 -51.27585937 -16.80054688 -50.5546875 -16.9453125 C-31.29618554 -19.87825867 -13.93370807 -13.05874995 0 0 Z M-68.36328125 10.85546875 C-76.52681238 20.12217976 -80.94898504 28.82771801 -80.67578125 41.48046875 C-78.89172034 53.92110778 -73.50350943 63.6091157 -63.67578125 71.48046875 C-54.28647905 77.26608075 -43.30862946 79.8347112 -32.46875 77.36328125 C-22.08232192 74.08029839 -13.44003196 68.96288737 -7.890625 59.40625 C-2.65583788 49.14705727 -0.69140885 38.72641002 -3.4296875 27.34765625 C-4.36830357 24.9403821 -5.40804048 22.72982824 -6.67578125 20.48046875 C-7.25328125 19.44921875 -7.83078125 18.41796875 -8.42578125 17.35546875 C-16.04718018 7.61701456 -24.06363607 1.95604532 -36.3515625 -0.2578125 C-48.82994233 -1.66294099 -59.18144729 2.7412899 -68.36328125 10.85546875 Z " fill="#000000" transform="translate(489.67578125,409.51953125)"/>
<path d="M0 0 C11.83691528 10.92325973 17.71455812 25.57201697 18.5234375 41.45703125 C18.54131493 57.85063661 12.45919226 71.24506645 1.50390625 83.2578125 C-10.2609013 94.62900196 -24.57052367 98.45743211 -40.46020508 98.40478516 C-55.7973058 98.11259885 -67.98941063 92.056944 -79.08203125 81.64453125 C-90.94021649 68.72065942 -94.42494973 54.11566906 -93.85546875 37.08203125 C-92.9555767 21.89989027 -85.42903406 9.28913294 -74.47265625 -0.9609375 C-51.73752813 -18.34466851 -22.41295793 -17.77457327 0 0 Z M-66.22265625 15.2265625 C-75.08961983 24.49656988 -77.0662442 34.23051912 -76.8046875 46.63671875 C-76.29143387 56.47302396 -71.65780323 63.88108514 -64.94140625 70.84375 C-57.07746146 77.83668825 -48.02381912 81.86105208 -37.47265625 82.0390625 C-25.2289419 81.28637514 -15.76423749 76.37483888 -7.4140625 67.45703125 C-0.9045333 59.34958945 1.99008552 49.94581772 1.40234375 39.6015625 C0.02674491 28.51861279 -4.26731177 19.31976956 -12.83203125 12.03125 C-29.81990153 -0.57775931 -50.74886349 0.77245954 -66.22265625 15.2265625 Z " fill="#000000" transform="translate(101.47265625,405.9609375)"/>
<path d="M0 0 C13.20285112 9.60207354 21.74474779 21.83864587 24.71875 38 C26.87748064 54.55026823 22.89882427 69.11624293 13.40625 82.75 C4.56374958 93.90000551 -8.84095811 101.23407474 -22.86328125 103.2109375 C-39.45686609 104.85748947 -53.82164579 101.13346561 -67.0625 90.8984375 C-77.57967619 81.9718219 -85.53911644 69.36163402 -86.81103516 55.35766602 C-87.66952946 37.08374922 -84.40455079 22.9121037 -72.53125 8.625 C-54.02582589 -11.08932116 -22.63789748 -14.69993343 0 0 Z M-56.91796875 17.5 C-63.69608523 23.69713507 -69.22885016 33.14489922 -69.83203125 42.41015625 C-70.04644443 50.95841994 -69.90102104 58.10758507 -65.59375 65.75 C-65.01625 66.78125 -64.43875 67.8125 -63.84375 68.875 C-56.43831 78.33750667 -48.2413628 84.56741917 -36.15625 86.53125 C-24.57505753 87.51988838 -13.58669727 84.28037513 -4.6640625 76.796875 C3.62958953 68.59711337 7.69358388 59.19127662 8.46875 47.64453125 C8.22834023 36.51055391 3.71019077 27.01993747 -3.78125 19 C-19.19916973 4.44568698 -40.35654883 5.030225 -56.91796875 17.5 Z " fill="#000000" transform="translate(94.59375,16.25)"/>
<path d="M0 0 C3.97256243 1.7373851 7.65118651 3.91188087 11.375 6.125 C12.365 6.69476563 13.355 7.26453125 14.375 7.8515625 C33.16567803 18.75908009 33.16567803 18.75908009 35 24 C35.1875 26.9375 35.1875 26.9375 34 30 C28.42595816 35.29693842 21.22307788 39.03567611 14.61767578 42.86132812 C12.86351603 43.88167994 11.12148283 44.92095764 9.37890625 45.9609375 C7.70248047 46.93546875 7.70248047 46.93546875 5.9921875 47.9296875 C4.98526855 48.51991699 3.97834961 49.11014648 2.94091797 49.71826172 C-0.33589793 51.14639417 -2.46306038 51.36559268 -6 51 C-8.8125 49.4375 -8.8125 49.4375 -11 47 C-11.95035673 43.45200154 -12.38516618 41.12587037 -11.1875 37.625 C-10 36 -10 36 -8 35 C-9.00036883 34.99853344 -10.00073767 34.99706688 -11.03142071 34.99555588 C-35.35952045 34.95897982 -59.68748232 34.89955513 -84.01546764 34.81609726 C-95.78025228 34.77626818 -107.54496965 34.74389534 -119.30981445 34.72900391 C-129.56266372 34.71600745 -139.81536521 34.68909415 -150.06813127 34.64538693 C-155.49817946 34.622727 -160.92804509 34.60709204 -166.35814476 34.60811615 C-171.46765948 34.60886008 -176.57676995 34.59101672 -181.68618011 34.55883217 C-183.56269043 34.55030372 -185.43924593 34.54860312 -187.31576729 34.55419731 C-189.87624438 34.56081453 -192.43542664 34.54297225 -194.99577332 34.51898193 C-196.11202938 34.53062256 -196.11202938 34.53062256 -197.25083607 34.54249835 C-200.84046927 34.48287616 -202.87220288 34.08042741 -205.93776417 32.15115738 C-208.58204351 29.39285935 -209 27.80238814 -209 24 C-207.39588152 20.47093933 -206.25840638 19.17227092 -203 17 C-200.37734393 16.79898167 -197.8597627 16.71475942 -195.23628235 16.7215271 C-194.03799837 16.7128385 -194.03799837 16.7128385 -192.81550664 16.70397437 C-190.12997498 16.68692504 -187.44461467 16.68409364 -184.7590332 16.68115234 C-182.83742855 16.67185757 -180.91582795 16.66168958 -178.99423218 16.65071106 C-173.76937846 16.62334619 -168.5445518 16.60824246 -163.31964517 16.59528303 C-157.86233166 16.57968082 -152.40507365 16.55288137 -146.94779968 16.5272522 C-136.60999956 16.48041278 -126.27218905 16.44369368 -115.93433684 16.41057932 C-104.16662136 16.37239438 -92.39896154 16.32297475 -80.63129294 16.27259517 C-56.42090318 16.16919853 -32.21047769 16.07996331 -8 16 C-8.99 14.87271484 -8.99 14.87271484 -10 13.72265625 C-12 11 -12 11 -12 7.4375 C-10.11059431 0.94266793 -6.6526327 -1.32383674 0 0 Z " fill="#000000" transform="translate(343,423)"/>
<path d="M0 0 C3.15625 1.3894043 3.15625 1.3894043 6.5 3.32421875 C7.09876953 3.6674971 7.69753906 4.01077545 8.31445312 4.36445618 C9.57514587 5.09063418 10.83226934 5.82304029 12.0859375 6.5612793 C13.98677227 7.6797169 15.89822575 8.77780431 17.8125 9.87304688 C33.2163349 18.78729853 33.2163349 18.78729853 35.0625 24 C34.98274649 27.82816858 34.49438132 29.06543375 32 32 C25.48984184 36.84908199 18.34485399 40.84609467 11.3125 44.875 C10.30638672 45.46796875 9.30027344 46.0609375 8.26367188 46.671875 C7.28591797 47.23132813 6.30816406 47.79078125 5.30078125 48.3671875 C4.42591064 48.87362793 3.55104004 49.38006836 2.6496582 49.90185547 C-1.1232355 51.46552228 -4.37947012 51.54017663 -8.25 50.25 C-10.51275631 48.63374549 -11.20297288 47.68090941 -12 45 C-11.67060811 38.74155405 -11.67060811 38.74155405 -9.44921875 36.28515625 C-8.73185547 35.64900391 -8.73185547 35.64900391 -8 35 C-9.00036883 34.99853344 -10.00073767 34.99706688 -11.03142071 34.99555588 C-35.35952045 34.95897982 -59.68748232 34.89955513 -84.01546764 34.81609726 C-95.78025228 34.77626818 -107.54496965 34.74389534 -119.30981445 34.72900391 C-129.56266372 34.71600745 -139.81536521 34.68909415 -150.06813127 34.64538693 C-155.49817946 34.622727 -160.92804509 34.60709204 -166.35814476 34.60811615 C-171.46765948 34.60886008 -176.57676995 34.59101672 -181.68618011 34.55883217 C-183.56269043 34.55030372 -185.43924593 34.54860312 -187.31576729 34.55419731 C-189.87624438 34.56081453 -192.43542664 34.54297225 -194.99577332 34.51898193 C-196.11202938 34.53062256 -196.11202938 34.53062256 -197.25083607 34.54249835 C-200.84046927 34.48287616 -202.87220288 34.08042741 -205.93776417 32.15115738 C-208.58204351 29.39285935 -209 27.80238814 -209 24 C-207.39588152 20.47093933 -206.25840638 19.17227092 -203 17 C-200.37734393 16.79898167 -197.8597627 16.71475942 -195.23628235 16.7215271 C-194.03799837 16.7128385 -194.03799837 16.7128385 -192.81550664 16.70397437 C-190.12997498 16.68692504 -187.44461467 16.68409364 -184.7590332 16.68115234 C-182.83742855 16.67185757 -180.91582795 16.66168958 -178.99423218 16.65071106 C-173.76937846 16.62334619 -168.5445518 16.60824246 -163.31964517 16.59528303 C-157.86233166 16.57968082 -152.40507365 16.55288137 -146.94779968 16.5272522 C-136.60999956 16.48041278 -126.27218905 16.44369368 -115.93433684 16.41057932 C-104.16662136 16.37239438 -92.39896154 16.32297475 -80.63129294 16.27259517 C-56.42090318 16.16919853 -32.21047769 16.07996331 -8 16 C-8.47566406 15.57460938 -8.95132813 15.14921875 -9.44140625 14.7109375 C-11.9257062 11.98381124 -11.93777159 9.6092475 -12 6 C-8.65308121 0.69109433 -6.18715887 -0.50961197 0 0 Z " fill="#000000" transform="translate(343,38)"/>
<path d="M0 0 C3.53672314 1.11963302 4.8540017 2.69316382 7.09765625 5.6640625 C7.85237733 9.55342527 7.77019706 13.40013622 7.72875977 17.3515625 C7.73591507 18.53419678 7.74307037 19.71683105 7.7504425 20.93530273 C7.76443798 24.17114156 7.75603725 27.40594265 7.73635221 30.64172363 C7.71994065 34.03199184 7.72878206 37.42220876 7.73387146 40.8125 C7.73838967 46.5053422 7.72253996 52.19785553 7.69458008 57.890625 C7.662529 64.46698052 7.66254454 71.042743 7.67979485 77.61914062 C7.69567325 83.95222388 7.68891807 90.28509026 7.67185783 96.61816406 C7.66499538 99.31028028 7.66601136 102.00222223 7.67340279 104.69433594 C7.67884699 108.45545301 7.65850267 112.21556042 7.63110352 115.9765625 C7.63762939 117.091521 7.64415527 118.20647949 7.65087891 119.35522461 C7.55747025 126.88824307 7.55747025 126.88824307 5.20744324 130.85331726 C2.73209671 132.97780753 1.5615902 133.30898685 -1.66796875 133.37109375 C-2.55742187 133.40009766 -3.446875 133.42910156 -4.36328125 133.45898438 C-5.28367187 133.46478516 -6.2040625 133.47058594 -7.15234375 133.4765625 C-8.08820313 133.50169922 -9.0240625 133.52683594 -9.98828125 133.55273438 C-12.29339107 133.6115382 -14.59660549 133.64786517 -16.90234375 133.6640625 C-16.25265625 134.2415625 -15.60296875 134.8190625 -14.93359375 135.4140625 C-12.77637721 137.80359467 -12.35353029 138.54000107 -12.40234375 141.6640625 C-12.57244242 144.51321524 -12.89330415 145.64899649 -14.40234375 148.1640625 C-17.96809704 150.30351448 -20.9093339 150.41255488 -24.90234375 149.6640625 C-29.27292864 147.80053091 -33.31099159 145.44545543 -37.40234375 143.0390625 C-38.49160156 142.42160156 -39.58085937 141.80414063 -40.703125 141.16796875 C-56.7623085 131.944133 -56.7623085 131.944133 -58.90234375 127.6640625 C-59.30531774 124.03729658 -59.29501219 122.25009869 -57.23803711 119.18017578 C-54.72647499 116.47460881 -52.45344454 114.97903173 -49.21875 113.21875 C-47.5800293 112.31576172 -47.5800293 112.31576172 -45.90820312 111.39453125 C-44.77189453 110.78222656 -43.63558594 110.16992188 -42.46484375 109.5390625 C-40.21591229 108.30771812 -37.96720608 107.07596223 -35.71875 105.84375 C-34.72302979 105.30476074 -33.72730957 104.76577148 -32.70141602 104.21044922 C-30.83425973 103.17891255 -28.98956358 102.10564526 -27.16992188 100.99243164 C-23.4879067 98.83547163 -21.12302179 99.19509827 -16.90234375 99.6640625 C-14.40234375 101.1640625 -14.40234375 101.1640625 -12.90234375 103.6640625 C-12.3553386 106.44467201 -12.310835 108.88852145 -12.90234375 111.6640625 C-14.90234375 114.1640625 -14.90234375 114.1640625 -16.90234375 115.6640625 C-14.59234375 115.9940625 -12.28234375 116.3240625 -9.90234375 116.6640625 C-9.90603092 116.09660718 -9.90971809 115.52915186 -9.913517 114.94450092 C-10.00188795 101.13149643 -10.06780753 87.31854152 -10.10959244 73.50531483 C-10.13047805 66.82528166 -10.158814 60.14549194 -10.20410156 53.46557617 C-10.24752361 47.02058085 -10.27147355 40.57578177 -10.28185272 34.13065147 C-10.28925055 31.67022296 -10.30369652 29.20980533 -10.32526398 26.74946022 C-10.35424851 23.30645052 -10.35830168 19.86425441 -10.35644531 16.42114258 C-10.37801697 14.89120918 -10.37801697 14.89120918 -10.40002441 13.33036804 C-10.37463715 8.98649505 -10.29898731 6.36136041 -8.12005615 2.5308075 C-5.47065639 0.30069247 -3.42882493 0.06816749 0 0 Z " fill="#000000" transform="translate(449.90234375,131.3359375)"/>
<path d="M0 0 C1.54179932 -0.01879967 1.54179932 -0.01879967 3.11474609 -0.03797913 C4.21898926 -0.02472092 5.32323242 -0.01146271 6.4609375 0.00219727 C8.16950928 -0.00142067 8.16950928 -0.00142067 9.91259766 -0.00511169 C12.32002241 -0.00413251 14.72746947 0.00927773 17.13476562 0.03417969 C20.82239169 0.06847753 24.50762109 0.05484297 28.1953125 0.03540039 C30.53386438 0.04229886 32.87241007 0.05197125 35.2109375 0.06469727 C36.31518066 0.0597374 37.41942383 0.05477753 38.55712891 0.04966736 C40.09892822 0.07342186 40.09892822 0.07342186 41.671875 0.09765625 C43.02611572 0.10695412 43.02611572 0.10695412 44.40771484 0.11643982 C47.59096491 0.79113217 48.80430241 2.14667493 50.8359375 4.63110352 C51.3671875 6.63110352 51.3671875 6.63110352 51.3359375 8.63110352 C51.35140625 9.62110352 51.35140625 9.62110352 51.3671875 10.63110352 C50.55627071 13.68396674 49.36693327 14.72673726 46.8359375 16.63110352 C43.85898946 17.18804201 40.93349901 17.09693315 37.9140625 17.02172852 C37.1514209 17.0177002 36.3887793 17.01367188 35.60302734 17.00952148 C32.76375143 16.9886486 29.92481943 16.93280274 27.0859375 16.88110352 C20.7334375 16.79860352 14.3809375 16.71610352 7.8359375 16.63110352 C8.1659375 39.40110352 8.4959375 62.17110352 8.8359375 85.63110352 C10.4859375 84.31110352 12.1359375 82.99110352 13.8359375 81.63110352 C17.45025179 81.69341928 19.80604143 81.84151653 22.7109375 84.06860352 C25.06011854 87.33135496 25.11869773 89.63810337 24.8359375 93.63110352 C23.73779297 96.28076172 23.73779297 96.28076172 22.203125 98.93188477 C21.64367187 99.90963867 21.08421875 100.88739258 20.5078125 101.89477539 C19.61835937 103.40394531 19.61835937 103.40394531 18.7109375 104.94360352 C18.14117187 105.93811523 17.57140625 106.93262695 16.984375 107.95727539 C6.10433385 126.78716479 6.10433385 126.78716479 0.8359375 128.63110352 C-2.1015625 128.81860352 -2.1015625 128.81860352 -5.1640625 127.63110352 C-10.46100092 122.05706168 -14.19973861 114.85418139 -18.02539062 108.2487793 C-19.04574244 106.49461955 -20.08502014 104.75258635 -21.125 103.01000977 C-22.09953125 101.33358398 -22.09953125 101.33358398 -23.09375 99.62329102 C-23.68397949 98.61637207 -24.27420898 97.60945313 -24.88232422 96.57202148 C-26.31045667 93.29520559 -26.52965518 91.16804314 -26.1640625 87.63110352 C-24.6015625 84.81860352 -24.6015625 84.81860352 -22.1640625 82.63110352 C-18.61606404 81.68074679 -16.28993287 81.24593733 -12.7890625 82.44360352 C-11.1640625 83.63110352 -11.1640625 83.63110352 -10.1640625 85.63110352 C-10.16041687 84.63996048 -10.15677124 83.64881744 -10.15301514 82.62763977 C-10.11606408 73.28424972 -10.05829028 63.94118923 -9.98015976 54.59805012 C-9.94066077 49.79468233 -9.9084842 44.99149852 -9.89306641 40.18798828 C-9.87791573 35.55176534 -9.8434986 30.91604813 -9.79575348 26.28005028 C-9.78092325 24.51188746 -9.77302054 22.74365244 -9.77217865 20.97542763 C-9.76981212 18.49723095 -9.74275963 16.0204355 -9.70996094 13.54248047 C-9.7149913 12.81239777 -9.72002167 12.08231506 -9.72520447 11.33010864 C-9.65394577 7.84725269 -9.20957996 5.70969861 -7.45269775 2.67608643 C-4.73213647 0.24516113 -3.60112966 0.0038362 0 0 Z " fill="#000000" transform="translate(64.1640625,247.368896484375)"/>
<path d="M0 0 C2.5 1.5 2.5 1.5 4 4 C4.45351444 7.1746011 4.68470208 8.98852271 4 12 C2 14.5 2 14.5 -1 17 C-2.27992709 18.28265614 -3.55001952 19.57516802 -4.8125 20.875 C-7.97849984 24.04099984 -11.24825383 27.01471885 -14.64453125 29.9296875 C-18.37262008 33.20644882 -21.98850312 36.60516352 -25.6081543 40.00097656 C-29.65306034 43.76969524 -32.00033606 45.61403221 -37.72265625 45.53125 C-42.5525373 44.40455391 -45.67288412 40.46550545 -49 37 C-50.16208984 35.88431641 -50.16208984 35.88431641 -51.34765625 34.74609375 C-57.49082208 28.51625186 -57.49082208 28.51625186 -57.56640625 23.58984375 C-56.7142455 18.18890766 -56.7142455 18.18890766 -54 16 C-50.32073064 14.97798073 -48.05546399 14.5514278 -44.5 16.0625 C-42.39013764 17.69764333 -40.36560568 19.3803138 -38.34375 21.12109375 C-37.71662109 21.66048584 -37.08949219 22.19987793 -36.44335938 22.75561523 C-35.96705078 23.16626221 -35.49074219 23.57690918 -35 24 C-34.5373877 23.55720703 -34.07477539 23.11441406 -33.59814453 22.65820312 C-28.43770165 17.72981991 -23.23798115 12.84589125 -18 8 C-17.4529541 7.49082031 -16.9059082 6.98164063 -16.34228516 6.45703125 C-11.00922065 1.5596566 -7.39756052 -1.53052976 0 0 Z " fill="#000000" transform="translate(475,426)"/>
</svg>
