<?xml version="1.0" standalone="no"?>
<!DOCTYPE svg PUBLIC "-//W3C//DTD SVG 20010904//EN"
 "http://www.w3.org/TR/2001/REC-SVG-20010904/DTD/svg10.dtd">
<svg version="1.0" xmlns="http://www.w3.org/2000/svg"
 width="512.000000pt" height="512.000000pt" viewBox="0 0 512.000000 512.000000"
 preserveAspectRatio="xMidYMid meet">

<g transform="translate(0.000000,512.000000) scale(0.100000,-0.100000)"
fill="#000000" stroke="none">
<path d="M4296 4981 l-141 -139 -285 -66 c-157 -37 -299 -71 -315 -77 -19 -5
-99 -78 -212 -191 l-181 -183 -73 -240 -72 -240 -329 -330 c-304 -306 -328
-333 -328 -365 0 -32 17 -52 206 -241 l205 -205 -41 -29 c-49 -34 -112 -125
-129 -188 -8 -26 -12 -78 -9 -124 7 -139 78 -247 204 -309 53 -26 69 -29 154
-29 88 0 101 3 163 33 45 23 82 50 114 87 l48 55 182 -182 c158 -158 186 -181
213 -181 28 0 57 25 233 200 l202 201 48 -54 c223 -248 630 -92 629 241 -1
112 -50 218 -129 277 -15 12 -32 25 -38 30 -5 5 65 83 173 191 100 101 182
191 182 201 0 36 -34 77 -224 265 l-195 195 79 82 c53 55 91 106 116 155 37
74 84 237 84 292 0 27 21 53 145 177 126 128 145 151 145 179 0 43 -38 81 -81
81 -28 0 -52 -19 -187 -152 -84 -84 -158 -161 -163 -170 -5 -10 -14 -55 -20
-100 -20 -167 -77 -287 -188 -392 l-41 -40 -74 72 c-62 61 -79 72 -108 72 -45
0 -78 -34 -78 -80 0 -31 24 -59 297 -332 l297 -298 -197 -198 c-169 -170 -197
-202 -197 -228 0 -38 32 -69 86 -83 151 -40 208 -209 111 -326 -107 -130 -304
-83 -351 85 -14 48 -23 63 -47 76 -17 8 -39 12 -52 9 -12 -4 -120 -104 -239
-223 l-218 -217 -200 200 c-182 182 -202 199 -234 199 -46 0 -63 -17 -82 -81
-28 -97 -109 -163 -199 -163 -120 0 -205 85 -205 205 0 100 55 170 153 197 58
15 90 47 90 89 0 27 -28 59 -221 252 l-222 222 465 465 465 464 -19 -59 c-10
-33 -58 -186 -106 -339 -94 -300 -96 -310 -45 -348 36 -26 164 -51 225 -43 62
8 142 45 177 82 49 52 136 192 214 348 74 144 81 155 107 155 100 0 294 76
376 146 97 84 124 152 76 199 -41 42 -74 34 -140 -34 -91 -95 -197 -140 -360
-156 -38 -4 -76 -12 -83 -18 -7 -6 -53 -90 -102 -187 -98 -193 -173 -315 -214
-347 -30 -24 -98 -39 -119 -26 -12 7 7 78 109 398 169 533 164 515 149 552
-14 33 -32 43 -78 43 -27 0 -55 -24 -209 -177 -98 -98 -178 -174 -178 -171 0
4 11 42 25 85 24 78 25 78 172 225 l148 146 320 76 320 76 153 153 c133 134
152 157 152 186 0 43 -38 81 -81 81 -28 0 -51 -18 -173 -139z"/>
<path d="M1779 2553 l-178 -176 -46 51 c-30 33 -70 63 -113 84 -60 30 -75 33
-157 33 -82 0 -97 -3 -157 -33 -157 -77 -237 -248 -193 -412 9 -36 18 -71 18
-79 1 -9 -25 -22 -78 -38 l-80 -24 -183 -182 c-112 -112 -186 -193 -192 -212
-5 -16 -39 -158 -76 -315 l-66 -285 -139 -141 c-121 -122 -139 -145 -139 -173
0 -43 38 -81 81 -81 29 0 52 19 186 153 l153 152 75 320 76 320 147 148 147
148 111 34 c61 19 114 35 119 35 5 0 -82 -92 -193 -204 -184 -185 -202 -206
-202 -237 0 -42 21 -75 55 -83 18 -5 148 38 466 150 300 106 444 153 451 146
15 -15 0 -87 -25 -118 -32 -41 -154 -116 -347 -214 -97 -49 -181 -95 -187
-102 -6 -7 -14 -44 -18 -83 -16 -163 -61 -269 -156 -360 -68 -66 -76 -99 -34
-140 47 -48 115 -21 199 76 71 82 146 277 146 376 0 26 9 33 118 87 149 74
284 153 350 205 100 80 137 189 108 328 -9 43 -24 89 -34 103 -40 53 -47 52
-369 -62 -164 -59 -307 -110 -318 -114 -11 -4 35 49 103 118 131 134 140 152
102 201 -13 16 -38 29 -71 37 -88 21 -159 109 -159 195 0 42 22 97 53 132 111
127 302 78 351 -90 19 -64 36 -81 82 -81 32 0 52 17 232 197 l197 197 142
-142 142 -143 -54 -48 c-37 -32 -64 -69 -87 -114 -30 -62 -33 -75 -33 -163 0
-83 3 -102 27 -150 35 -71 107 -143 178 -177 48 -24 68 -27 150 -28 85 0 101
3 154 29 58 28 133 92 154 131 10 18 25 6 179 -147 l168 -168 -140 -140 -139
-139 -47 52 c-177 199 -488 152 -602 -91 -27 -57 -31 -78 -31 -148 0 -74 3
-89 37 -157 34 -68 76 -118 124 -146 16 -9 -2 -30 -144 -173 l-163 -163 -302
301 c-167 166 -313 307 -325 313 -49 25 -107 -16 -107 -75 0 -30 10 -45 73
-108 l72 -73 -72 -67 c-41 -38 -98 -79 -133 -95 -69 -32 -175 -61 -227 -61
-78 0 -99 -14 -262 -178 -138 -139 -157 -162 -157 -191 0 -43 38 -81 81 -81
28 0 51 19 179 145 124 124 150 145 177 145 55 0 218 47 292 84 47 24 99 63
152 113 l80 77 217 -217 c171 -171 224 -218 250 -223 33 -7 38 -2 298 257 284
285 289 291 242 342 -13 13 -48 31 -80 41 -144 42 -193 211 -95 323 61 69 153
91 232 54 58 -27 94 -71 119 -143 24 -69 54 -96 97 -85 13 4 129 112 258 241
207 207 234 238 234 266 0 28 -30 62 -264 296 -237 237 -267 264 -296 264 -38
0 -70 -27 -78 -67 -27 -123 -113 -192 -227 -181 -99 10 -178 98 -178 199 0 61
13 96 53 137 38 40 69 57 119 66 23 4 45 17 58 33 42 54 38 60 -223 320 -220
221 -246 243 -276 243 -30 0 -52 -18 -212 -177z"/>
</g>
</svg>
