<?xml version="1.0" encoding="UTF-8"?>
<svg version="1.1" xmlns="http://www.w3.org/2000/svg" width="512" height="512">
<path d="M0 0 C2.4878941 1.77013908 4.75320714 3.74606905 7.06640625 5.73828125 C10.85252085 8.97993683 10.85252085 8.97993683 15.75390625 9.42578125 C16.39328125 9.26851562 17.03265625 9.11125 17.69140625 8.94921875 C27.76597769 6.66882589 37.13757247 8.37403293 46.00390625 13.42578125 C53.97968456 18.49147828 58.56796019 26.5391168 60.7890625 35.64453125 C61.7616051 38.66007223 61.7616051 38.66007223 64.7265625 39.859375 C65.82871094 40.19066406 66.93085938 40.52195313 68.06640625 40.86328125 C77.85894346 44.27877988 83.67623357 48.86972984 88.8125 57.8984375 C91.38958562 63.3652388 92.25962038 67.80462601 92.19140625 73.86328125 C92.18173828 75.74853516 92.18173828 75.74853516 92.171875 77.671875 C92.00390625 81.42578125 92.00390625 81.42578125 91.23046875 85.078125 C90.66129754 88.48236619 90.66129754 88.48236619 92.734375 91.05859375 C93.95060547 92.29222656 93.95060547 92.29222656 95.19140625 93.55078125 C101.54531091 100.75583202 104.87070344 109.53826317 104.3203125 119.25 C103.01098358 128.25365687 99.53199647 136.47821541 92.56640625 142.55078125 C92.05078125 143.16953125 91.53515625 143.78828125 91.00390625 144.42578125 C91.29014667 146.76535856 91.6328016 149.09815652 92.00390625 151.42578125 C92.6263008 161.43510993 93.08677973 171.26325206 86.3671875 179.41015625 C84.69140625 181.23828125 84.69140625 181.23828125 83.078125 182.7578125 C81.76117335 184.41732255 81.76117335 184.41732255 82.25634766 186.69677734 C83.08937631 189.73779443 84.29540924 192.03879864 85.890625 194.7578125 C86.49318115 195.79260742 87.0957373 196.82740234 87.71655273 197.89355469 C88.69410522 199.54919434 88.69410522 199.54919434 89.69140625 201.23828125 C90.36286714 202.39048085 91.03351075 203.54315708 91.70336914 204.69628906 C95.12793407 210.58036562 98.60249794 216.43262242 102.11328125 222.265625 C102.75692627 223.34416748 103.40057129 224.42270996 104.0637207 225.53393555 C105.29283639 227.59055884 106.53316507 229.64053219 107.78588867 231.68286133 C108.34123291 232.61380615 108.89657715 233.54475098 109.46875 234.50390625 C110.20532837 235.71675293 110.20532837 235.71675293 110.95678711 236.95410156 C112.23434195 239.9697148 112.29537919 242.17997201 112.00390625 245.42578125 C110.45703125 247.8046875 110.45703125 247.8046875 108.00390625 249.42578125 C105.4015059 249.65111104 103.3202962 249.61826565 100.75390625 249.36328125 C100.00898926 249.30599854 99.26407227 249.24871582 98.49658203 249.18969727 C95.66287854 248.96144054 92.83413527 248.69377259 90.00390625 248.42578125 C87.96600219 248.24156393 85.92809538 248.05737636 83.89013672 247.87376404 C75.25786108 247.09370654 66.63013182 246.26997917 58.00390625 245.42578125 C57.75697021 246.23370117 57.51003418 247.04162109 57.25561523 247.87402344 C55.75242757 252.13935875 53.90230077 256.16570856 51.9765625 260.25390625 C51.58697861 261.08412292 51.19739471 261.9143396 50.79600525 262.76971436 C49.97499354 264.51532063 49.15208679 266.26003672 48.32739258 268.00390625 C47.06580554 270.67705409 45.81695248 273.35591932 44.56835938 276.03515625 C43.76770248 277.7334387 42.96629608 279.43136803 42.1640625 281.12890625 C41.79209244 281.93096497 41.42012238 282.73302368 41.03688049 283.55938721 C40.68318893 284.30065857 40.32949738 285.04192993 39.96508789 285.80566406 C39.65801407 286.45819153 39.35094025 287.11071899 39.03456116 287.78302002 C38.00390625 289.42578125 38.00390625 289.42578125 35.00390625 291.42578125 C32.06640625 291.86328125 32.06640625 291.86328125 29.00390625 291.42578125 C26.1164863 288.24650618 23.94362862 284.81572889 21.82421875 281.09375 C21.23141113 280.05855225 20.63860352 279.02335449 20.02783203 277.95678711 C19.40118652 276.85343018 18.77454102 275.75007324 18.12890625 274.61328125 C17.13544353 272.8777331 16.14196919 271.14219143 15.14767456 269.40711975 C14.46532216 268.21610484 13.78346214 267.0248077 13.1020813 265.83323669 C9.47514884 259.49192467 5.80685819 253.17513064 2.12890625 246.86328125 C1.52836426 245.82905029 0.92782227 244.79481934 0.30908203 243.72924805 C-0.51873779 242.30866089 -0.51873779 242.30866089 -1.36328125 240.859375 C-1.84909668 240.02462646 -2.33491211 239.18987793 -2.83544922 238.32983398 C-3.85597633 236.48732028 -3.85597633 236.48732028 -4.99609375 235.42578125 C-6.66389604 235.75338527 -8.33032286 236.08799993 -9.99609375 236.42578125 C-11.99448622 236.5161341 -13.99566628 236.55588438 -15.99609375 236.55078125 C-17.00671875 236.55335938 -18.01734375 236.5559375 -19.05859375 236.55859375 C-21.81841172 236.43381475 -24.30089195 235.99788669 -26.99609375 235.42578125 C-32.54552608 244.31077662 -37.84450131 253.30484658 -42.99609375 262.42578125 C-57.27239286 287.70208036 -57.27239286 287.70208036 -60.99609375 291.42578125 C-63.87109375 291.80078125 -63.87109375 291.80078125 -66.99609375 291.42578125 C-71.25493114 288.13655374 -73.08226854 283.6235571 -75.2890625 278.86328125 C-75.68055984 278.03497803 -76.07205719 277.2066748 -76.47541809 276.35327148 C-77.29879023 274.60688966 -78.11801904 272.85854907 -78.93334961 271.10839844 C-80.18115917 268.43100506 -81.44196519 265.76004631 -82.70507812 263.08984375 C-83.50467552 261.3896845 -84.30352915 259.6891752 -85.1015625 257.98828125 C-85.47758102 257.190271 -85.85359955 256.39226074 -86.24101257 255.57006836 C-86.58839981 254.82249268 -86.93578705 254.07491699 -87.29370117 253.3046875 C-87.59918381 252.65056885 -87.90466644 251.9964502 -88.21940613 251.32250977 C-89.01553778 249.37829749 -89.53750412 247.47354974 -89.99609375 245.42578125 C-91.29756348 245.54695312 -92.5990332 245.668125 -93.93994141 245.79296875 C-98.78148454 246.24300266 -103.6233554 246.68942193 -108.46533203 247.13476562 C-110.5585218 247.3277938 -112.65162216 247.52179421 -114.74462891 247.71679688 C-117.75790639 247.99736808 -120.77149108 248.27440922 -123.78515625 248.55078125 C-124.71663483 248.63827637 -125.6481134 248.72577148 -126.6078186 248.81591797 C-139.21190199 249.96233351 -139.21190199 249.96233351 -142.37109375 247.80078125 C-144.47525477 244.72546899 -144.31237809 243.10833543 -143.99609375 239.42578125 C-142.85717773 236.77050781 -142.85717773 236.77050781 -141.2421875 234.06640625 C-140.34113281 232.5342749 -140.34113281 232.5342749 -139.421875 230.97119141 C-138.76574219 229.88370605 -138.10960937 228.7962207 -137.43359375 227.67578125 C-136.41726961 225.94916275 -135.40096033 224.2225353 -134.38552856 222.49539185 C-132.59968936 219.4658571 -130.7969416 216.44640953 -128.99609375 213.42578125 C-126.48634893 209.21321906 -123.98624718 204.99538586 -121.50662231 200.76501465 C-120.50861614 199.07202389 -119.49547895 197.3879824 -118.48217773 195.70410156 C-117.87833252 194.67639648 -117.2744873 193.64869141 -116.65234375 192.58984375 C-115.84506836 191.23560303 -115.84506836 191.23560303 -115.02148438 189.85400391 C-113.80216291 187.52124306 -113.80216291 187.52124306 -114.24853516 185.21923828 C-115.15844177 183.03629446 -116.36086945 181.49406125 -117.87109375 179.67578125 C-124.66339257 170.72823377 -124.55768078 162.21473213 -123.99609375 151.42578125 C-123.62677734 149.58306641 -123.62677734 149.58306641 -123.25 147.703125 C-122.6626159 144.42337585 -122.6626159 144.42337585 -124.5078125 142.08984375 C-125.22582031 141.41695312 -125.94382813 140.7440625 -126.68359375 140.05078125 C-131.7891185 134.82029611 -135.25641531 128.82256568 -135.99609375 121.42578125 C-136.05925781 120.81734375 -136.12242187 120.20890625 -136.1875 119.58203125 C-136.74557303 109.64473088 -133.72978052 100.97387154 -127.18359375 93.55078125 C-126.37277344 92.72835937 -125.56195313 91.9059375 -124.7265625 91.05859375 C-122.65348093 88.48035811 -122.65348093 88.48035811 -123.21484375 85.0625 C-123.47265625 83.86238281 -123.73046875 82.66226563 -123.99609375 81.42578125 C-124.83819767 68.65617256 -123.28985737 59.43864494 -115.04296875 49.46484375 C-110.22735714 44.66761233 -104.79996295 41.73939797 -98.18359375 40.36328125 C-95.90449162 39.81779765 -95.90449162 39.81779765 -93.99609375 38.42578125 C-92.34239857 35.26872682 -91.26568233 32.10736505 -90.15625 28.72265625 C-87.2194776 20.37708081 -81.58608797 15.6192204 -73.99609375 11.42578125 C-73.07376953 10.91337891 -73.07376953 10.91337891 -72.1328125 10.390625 C-64.78213509 7.00648015 -55.44536167 7.48531535 -47.74609375 9.42578125 C-42.45542179 9.42578125 -40.36731514 6.86540027 -36.46875 3.5078125 C-27.13101206 -4.35476936 -10.91614268 -5.87463647 0 0 Z M-34.1328125 18.83984375 C-39.16478684 23.12282401 -44.65888438 22.88764566 -50.99609375 22.42578125 C-51.98609375 22.09578125 -52.97609375 21.76578125 -53.99609375 21.42578125 C-60.74012505 20.59970513 -66.24707864 21.79196981 -71.99609375 25.42578125 C-77.39354065 29.73174444 -79.16361274 35.04001755 -80.94140625 41.55859375 C-82.73874752 46.44469928 -84.7126799 48.82318513 -89.45703125 51.05078125 C-90.75631877 51.52420585 -92.0612827 51.98230192 -93.37109375 52.42578125 C-99.96552236 54.68522691 -106.0019894 57.5141429 -109.37109375 64.05078125 C-112.0044061 69.78725006 -111.97393771 76.49224938 -109.99609375 82.42578125 C-109.55537292 89.0365937 -110.23451368 94.194145 -114.6484375 99.359375 C-115.25816406 100.02066406 -115.86789063 100.68195313 -116.49609375 101.36328125 C-120.55563265 105.84425534 -122.86383032 109.77416046 -123.0859375 115.90625 C-122.63044532 123.62625849 -119.87714391 128.35930613 -114.87109375 134.05078125 C-110.19332575 139.37823925 -109.6658495 143.4906519 -109.99609375 150.42578125 C-110.23779297 151.37517578 -110.23779297 151.37517578 -110.484375 152.34375 C-111.94138343 158.27188352 -112.03407059 164.4683267 -108.87109375 169.80078125 C-104.42065819 175.83714551 -100.43800184 178.36791151 -93.43359375 180.86328125 C-88.32167546 182.7606675 -84.43667424 184.32456794 -81.99609375 189.42578125 C-81.23221174 191.54583061 -80.48373412 193.67145937 -79.74609375 195.80078125 C-77.29140871 202.55502468 -74.01854451 206.52890134 -67.99609375 210.42578125 C-61.73877267 213.21922816 -56.23222287 212.1690884 -49.703125 211.0234375 C-44.13181765 210.17000143 -39.89559986 210.44784735 -34.99609375 213.42578125 C-33.13390049 215.1311159 -31.42692091 216.93288993 -29.69921875 218.7734375 C-25.76530171 222.59005885 -21.36410042 223.60368459 -16.05859375 223.86328125 C-8.77000439 223.5986426 -4.16392964 220.60242593 1.12890625 215.80078125 C4.8564979 212.42785366 7.81282562 210.29838069 13.05859375 210.5078125 C16.16327397 210.82472622 19.22720644 211.28972669 22.30078125 211.828125 C29.04077455 212.86236535 33.26650215 211.65833266 39.0703125 208.19140625 C44.5431315 204.1620822 46.74128828 199.16747222 48.75048828 192.84472656 C50.43929319 187.81330626 52.63723402 185.3845325 57.00390625 182.42578125 C60.1875 181.125 60.1875 181.125 63.44140625 180.11328125 C70.60673968 177.52852627 74.25789512 173.91339004 78.16796875 167.5234375 C79.22058605 164.8820567 79.23426807 162.76245448 79.19140625 159.92578125 C79.18496094 158.98734375 79.17851562 158.04890625 79.171875 157.08203125 C79.0214684 154.70350831 78.61862743 152.7144355 78.00390625 150.42578125 C77.46828935 143.99837844 78.38922739 139.80065155 82.00390625 134.42578125 C83.18871303 133.05098319 84.39800714 131.69696943 85.62890625 130.36328125 C90.0862797 125.43721402 91.25354187 121.08340473 90.94140625 114.48828125 C90.08543941 107.86209088 87.02561183 103.40047042 82.31640625 98.80078125 C78.64926294 95.03452596 77.91008309 91.35303688 77.81640625 86.23828125 C78.00390625 82.42578125 78.00390625 82.42578125 79.00390625 79.42578125 C79.69310541 72.4321045 79.49087814 66.11247824 75.00390625 60.42578125 C70.7292117 56.35702089 66.97511231 54.4174737 61.44140625 52.55078125 C56.47488965 50.70003969 52.445382 49.1977063 49.765625 44.41015625 C48.88346223 42.11200913 48.21741558 39.79962743 47.56640625 37.42578125 C45.91026625 31.40511759 43.23648411 27.47734196 37.9296875 24.109375 C32.6694269 21.4746546 27.84048688 20.71085872 22.00390625 21.42578125 C21.01390625 21.75578125 20.02390625 22.08578125 19.00390625 22.42578125 C12.11076069 23.17264072 6.74494376 22.4251557 1.00390625 18.42578125 C-0.68271833 16.7793144 -2.35121081 15.11395058 -3.99609375 13.42578125 C-14.76493383 5.80879681 -25.58262282 11.20747104 -34.1328125 18.83984375 Z M-100.99609375 192.42578125 C-102.98163258 194.8154748 -102.98163258 194.8154748 -104.71875 198.0078125 C-105.06019547 198.59021194 -105.40164093 199.17261139 -105.75343323 199.7726593 C-106.8487397 201.64908168 -107.92264996 203.53678295 -108.99609375 205.42578125 C-109.70436542 206.64832027 -110.41382705 207.87017071 -111.12451172 209.09130859 C-113.24879744 212.75330756 -115.34264317 216.43218046 -117.43359375 220.11328125 C-118.15931458 221.38617641 -118.88522535 222.6589633 -119.61132812 223.93164062 C-122.90846579 229.62228797 -122.90846579 229.62228797 -125.99609375 235.42578125 C-124.80532227 235.32966553 -123.61455078 235.2335498 -122.38769531 235.13452148 C-117.96762828 234.77947776 -113.54692393 234.43300492 -109.12597656 234.08911133 C-107.21303141 233.93910503 -105.30026676 233.78677816 -103.38769531 233.63208008 C-100.63781232 233.41006201 -97.88738723 233.19641054 -95.13671875 232.984375 C-94.28241272 232.91359238 -93.42810669 232.84280975 -92.5479126 232.7698822 C-91.34712067 232.67967552 -91.34712067 232.67967552 -90.12207031 232.58764648 C-89.06950043 232.50437355 -89.06950043 232.50437355 -87.9956665 232.41941833 C-85.77784864 232.42647574 -84.07824598 232.65169102 -81.99609375 233.42578125 C-80.60864594 235.65386479 -79.51038536 237.7220426 -78.4296875 240.09375 C-78.10952164 240.7661824 -77.78935577 241.43861481 -77.45948792 242.13142395 C-76.43729879 244.28594215 -75.43522191 246.44913916 -74.43359375 248.61328125 C-73.75588436 250.05205813 -73.07686215 251.49021741 -72.39648438 252.92773438 C-71.13942074 255.5863118 -69.89112836 258.24867818 -68.65014648 260.91479492 C-67.14474575 264.11024406 -65.59010792 267.27378096 -63.99609375 270.42578125 C-59.73505383 265.61659784 -56.84669364 260.07458652 -53.74609375 254.48828125 C-52.59139842 252.42563983 -51.43645081 250.36313961 -50.28125 248.30078125 C-49.72195801 247.29917969 -49.16266602 246.29757812 -48.58642578 245.265625 C-46.47417807 241.49380042 -44.33400196 237.73844459 -42.18359375 233.98828125 C-41.55839844 232.89644531 -40.93320313 231.80460937 -40.2890625 230.6796875 C-39.86238281 229.93589844 -39.43570313 229.19210938 -38.99609375 228.42578125 C-41.79029867 224.50974821 -41.79029867 224.50974821 -45.99609375 222.42578125 C-48.12069197 222.78563121 -48.12069197 222.78563121 -50.43359375 223.42578125 C-60.21258586 225.46957641 -68.49171914 224.10761192 -77.234375 219.2734375 C-85.33671914 213.85277445 -88.8859505 207.42272598 -91.79296875 198.24609375 C-93.11888968 195.13792844 -94.03151909 193.99590783 -96.99609375 192.42578125 C-98.31609375 192.42578125 -99.63609375 192.42578125 -100.99609375 192.42578125 Z M62.50390625 194.23828125 C60.10832866 196.79308152 59.24575824 199.36409416 58.19140625 202.67578125 C55.26786831 211.2615073 50.15670116 216.57096887 42.25390625 220.92578125 C33.22222481 225.01559926 25.00624519 225.23687977 15.57421875 222.41015625 C11.53358954 222.43471935 9.87526584 224.69673394 7.00390625 227.42578125 C11.78102328 237.40710856 17.11989423 246.9259203 22.80371094 256.41455078 C24.60099321 259.42635131 26.3650093 262.45680653 28.12890625 265.48828125 C28.68835938 266.44863281 29.2478125 267.40898437 29.82421875 268.3984375 C30.40816406 269.40197266 30.40816406 269.40197266 31.00390625 270.42578125 C34.06993224 267.82411426 35.38319706 264.84507191 37.03515625 261.21875 C37.31234497 260.61573563 37.58953369 260.01272125 37.87512207 259.39143372 C38.75768057 257.46819112 39.63104828 255.54094302 40.50390625 253.61328125 C41.37870683 251.69726993 42.25537994 249.78212702 43.13269043 247.86726379 C43.93076788 246.12281043 44.72429997 244.37627971 45.51757812 242.62963867 C46.00806641 241.57236572 46.49855469 240.51509277 47.00390625 239.42578125 C47.43767578 238.32016846 47.87144531 237.21455566 48.31835938 236.07543945 C50.00390625 233.42578125 50.00390625 233.42578125 52.63525391 232.51586914 C56.76815445 232.40534296 60.78666998 232.62033461 64.90234375 232.984375 C65.73730377 233.05237808 66.57226379 233.12038116 67.43252563 233.19044495 C70.08194542 233.40781518 72.73037273 233.6353909 75.37890625 233.86328125 C77.18223564 234.01304599 78.98562072 234.16214171 80.7890625 234.31054688 C85.19469281 234.67455049 89.5994622 235.04770514 94.00390625 235.42578125 C93.48513916 234.52174561 92.96637207 233.61770996 92.43188477 232.6862793 C88.94305579 226.59858861 85.47054518 220.50538043 82.10009766 214.35107422 C78.86472914 208.45160536 75.59519241 202.56802824 72.12890625 196.80078125 C71.61585938 195.94226563 71.1028125 195.08375 70.57421875 194.19921875 C69.79691406 193.32136719 69.79691406 193.32136719 69.00390625 192.42578125 C65.02899574 192.03446954 65.02899574 192.03446954 62.50390625 194.23828125 Z " fill="#000000" transform="translate(271.99609375,17.57421875)"/>
<path d="M0 0 C3.29789846 2.62583764 5.79274239 5.35501603 7.68359375 9.13671875 C7.78554052 10.95125113 7.82307667 12.76953633 7.83076477 14.58691406 C7.84149773 16.32371178 7.84149773 16.32371178 7.85244751 18.09559631 C7.85513641 19.37244797 7.85782532 20.64929962 7.8605957 21.96484375 C7.86685997 23.31835607 7.87350673 24.67186666 7.88050842 26.02537537 C7.90156779 30.47914428 7.91191726 34.93291358 7.921875 39.38671875 C7.92592282 40.921275 7.93003975 42.45583108 7.93422508 43.99038696 C7.9532863 51.20494029 7.96751148 58.41948337 7.97583705 65.63405704 C7.98559265 73.95009202 8.01186406 82.26585962 8.05233794 90.58180046 C8.08256849 97.0150671 8.09731276 103.44825745 8.10061806 109.8815937 C8.10296203 113.72062154 8.11183556 117.55936408 8.13707924 121.39831543 C8.16048478 125.01649105 8.16454373 128.63419614 8.15431786 132.25242805 C8.153592 134.1995308 8.17259853 136.14661031 8.19238281 138.09361267 C8.12507295 149.53604444 5.07522702 157.31992943 -2.37890625 165.88671875 C-3.5492704 167.27772667 -4.71852333 168.66967024 -5.88671875 170.0625 C-6.46711914 170.74779785 -7.04751953 171.4330957 -7.64550781 172.13916016 C-10.08927253 175.06068016 -12.42239466 178.06295475 -14.75390625 181.07421875 C-19.43431898 187.08044691 -24.26634609 192.95339387 -29.12255859 198.81787109 C-33.2277003 203.78607024 -37.24174442 208.81525003 -41.203125 213.8984375 C-44.68494818 218.35761455 -48.23900133 222.75396516 -51.81640625 227.13671875 C-56.81236451 233.26134179 -61.73802962 239.4346972 -66.59765625 245.66796875 C-68.51362332 248.12332831 -70.45449265 250.55661636 -72.41015625 252.98046875 C-72.91724121 253.6132373 -73.42432617 254.24600586 -73.94677734 254.89794922 C-74.91840289 256.10954501 -75.89503539 257.31714838 -76.87744141 258.52001953 C-80.30809298 262.81752212 -81.4159736 265.81751588 -81.48999023 271.23095703 C-81.50348007 272.0250296 -81.51696991 272.81910217 -81.53086853 273.63723755 C-81.54130692 274.48526947 -81.5517453 275.33330139 -81.5625 276.20703125 C-81.59541463 278.0078178 -81.62862664 279.80859893 -81.66210938 281.609375 C-81.70967021 284.44478925 -81.75416048 287.2801779 -81.79321289 290.11572266 C-81.83278821 292.85471387 -81.88433907 295.59327486 -81.9375 298.33203125 C-81.94591415 299.18411163 -81.95432831 300.03619202 -81.96299744 300.91409302 C-82.08966346 306.90997596 -82.08966346 306.90997596 -84.31640625 309.13671875 C-86.89545898 309.33507442 -89.36712456 309.40948977 -91.94726562 309.39550781 C-92.73438431 309.39901245 -93.52150299 309.40251709 -94.33247375 309.40612793 C-96.94179021 309.41495118 -99.5508369 309.40909407 -102.16015625 309.40234375 C-103.96854708 309.40369023 -105.77693756 309.40563062 -107.58532715 309.40814209 C-111.37837159 309.41109415 -115.17132195 309.40679308 -118.96435547 309.39746094 C-123.83381387 309.38606635 -128.70305183 309.39262538 -133.57250214 309.40460587 C-137.30761383 309.41182225 -141.042673 309.40953756 -144.77778625 309.40435028 C-146.5735934 309.40301317 -148.36940527 309.40466364 -150.16520691 309.40930939 C-152.67211599 309.41437101 -155.17866473 309.40666968 -157.68554688 309.39550781 C-158.43262405 309.39955627 -159.17970123 309.40360474 -159.94941711 309.40777588 C-165.08787756 309.36524744 -165.08787756 309.36524744 -167.31640625 307.13671875 C-168.70763959 303.40853048 -168.46416357 299.46982782 -168.46166992 295.54516602 C-168.46502853 294.78517807 -168.46838715 294.02519012 -168.47184753 293.24217224 C-168.48134513 290.72913983 -168.48330073 288.21617425 -168.484375 285.703125 C-168.48759082 283.94636508 -168.49095514 282.18960543 -168.49446106 280.43284607 C-168.50045107 276.74501934 -168.50230133 273.05721602 -168.50170898 269.36938477 C-168.50160792 264.67595752 -168.51520246 259.98268346 -168.53248119 255.28929234 C-168.54368483 251.65583121 -168.54562556 248.02240598 -168.54509926 244.38892937 C-168.54626903 242.66082168 -168.55063355 240.93271275 -168.55843163 239.20462227 C-168.65441282 215.7168926 -164.46045124 195.42887644 -147.31640625 178.13671875 C-145.38265027 176.37767584 -143.41218973 174.67445803 -141.41796875 172.984375 C-139.1138952 170.95867465 -136.96889467 168.82249308 -134.81640625 166.63671875 C-131.45526143 163.22953085 -127.97939422 160.06213701 -124.34765625 156.94921875 C-122.08002053 154.92578995 -119.95063675 152.80018528 -117.81640625 150.63671875 C-114.45526143 147.22953085 -110.97939422 144.06213701 -107.34765625 140.94921875 C-105.08002053 138.92578995 -102.95063675 136.80018528 -100.81640625 134.63671875 C-97.45575765 131.23003387 -93.98252039 128.0615108 -90.34765625 124.953125 C-87.34171968 122.26512402 -84.56789898 119.36184094 -81.78515625 116.4453125 C-79.31640625 114.13671875 -79.31640625 114.13671875 -77.35676575 113.07736206 C-74.86875308 111.64172914 -73.1678393 110.34633731 -71.31640625 108.13671875 C-70.15901628 103.60509261 -70.31665123 99.17767345 -70.421875 94.5234375 C-70.42197378 93.18593312 -70.41810641 91.84842317 -70.41047668 90.51094055 C-70.39906143 86.99720547 -70.43259353 83.48544789 -70.47839355 79.9720459 C-70.54503706 74.36155577 -70.54742245 68.75089197 -70.54171181 63.14008522 C-70.54675622 61.19425487 -70.57488126 59.24852774 -70.6035614 57.30290222 C-70.65478024 47.09529188 -69.42222545 39.41778925 -62.26953125 31.859375 C-57.98715968 28.08232327 -53.66572003 26.30123238 -48.06640625 25.51171875 C-44.27071186 24.57369326 -44.27071186 24.57369326 -43.1015625 22.0390625 C-42.4420298 20.28295735 -41.81662648 18.51372546 -41.22265625 16.734375 C-38.547852 9.06737145 -33.23366287 5.01226151 -26.31640625 1.13671875 C-25.71183594 0.79382813 -25.10726562 0.4509375 -24.484375 0.09765625 C-17.45046411 -3.18177061 -6.74093937 -3.78731223 0 0 Z M-16.97265625 11.21875 C-23.50870837 13.77870375 -27.42014192 17.52011787 -30.45684624 23.76322937 C-32.02062933 28.08127874 -31.85999366 32.37768574 -31.81469727 36.92382812 C-31.82021606 37.97528519 -31.82573486 39.02674225 -31.8314209 40.11006165 C-31.8407107 42.38148638 -31.84087118 44.65296321 -31.83282661 46.9243927 C-31.82016204 50.52322287 -31.83151887 54.12129 -31.84886169 57.72009277 C-31.87553096 64.06276978 -31.88115854 70.40525883 -31.87976074 76.74798584 C-31.87753016 86.89922176 -31.89170331 97.05022517 -31.9353466 107.20137024 C-31.94516542 110.73996271 -31.93647798 114.27818769 -31.926651 117.81677246 C-31.93279693 119.99438719 -31.93970924 122.17199994 -31.94750977 124.34960938 C-31.9397905 125.32750931 -31.93207123 126.30540924 -31.92411804 127.3129425 C-31.9826688 135.25468465 -33.3716135 141.7211976 -39.06640625 147.63671875 C-40.24589844 148.88388672 -40.24589844 148.88388672 -41.44921875 150.15625 C-41.89555664 150.61854004 -42.34189453 151.08083008 -42.80175781 151.55712891 C-44.55229802 153.38272451 -46.2747323 155.23280773 -47.99609375 157.0859375 C-58.16742775 168.01873478 -58.16742775 168.01873478 -63.07421875 172.890625 C-65.34569409 175.14649868 -67.51328064 177.42748038 -69.56640625 179.88671875 C-74.19175228 185.25505023 -79.27595063 190.16317184 -84.31640625 195.13671875 C-85.18652344 196.06226563 -86.05664062 196.9878125 -86.953125 197.94140625 C-89.31640625 200.13671875 -89.31640625 200.13671875 -92.50390625 200.57421875 C-95.31640625 200.13671875 -95.31640625 200.13671875 -97.31640625 198.13671875 C-97.87890625 194.94921875 -97.87890625 194.94921875 -97.31640625 191.13671875 C-95.81110226 189.15933717 -94.14751791 187.60346925 -92.30078125 185.94140625 C-90.35626959 184.17297242 -88.69702628 182.33177536 -87.00390625 180.32421875 C-84.24022596 177.1133812 -81.33021029 174.1140471 -78.31640625 171.13671875 C-75.364576 168.22045272 -72.51251766 165.2906604 -69.81640625 162.13671875 C-67.12029484 158.9827771 -64.2682365 156.05298478 -61.31640625 153.13671875 C-50.04660446 142.95490685 -50.04660446 142.95490685 -44.00390625 129.88671875 C-44.37569908 125.42520477 -45.45508397 123.53937227 -48.31640625 120.13671875 C-51.12913456 117.85612823 -52.99420593 117.19248419 -56.56640625 116.57421875 C-66.24631615 118.02620524 -72.72365121 126.32973349 -79.2421875 133.0234375 C-82.16424221 136.01487433 -85.2382991 138.75950175 -88.42578125 141.46484375 C-91.46017112 144.14814719 -94.25407562 147.06668496 -97.09765625 149.94921875 C-99.72411747 152.53868756 -102.48617083 154.92508839 -105.28515625 157.32421875 C-107.55279197 159.34764755 -109.68217575 161.47325222 -111.81640625 163.63671875 C-115.17755107 167.04390665 -118.65341828 170.21130049 -122.28515625 173.32421875 C-125.35705036 176.06529349 -128.20698657 179.01578083 -131.08984375 181.953125 C-133.13020434 183.95411021 -135.23375677 185.76292332 -137.44140625 187.57421875 C-148.31308558 196.97616807 -153.80162528 210.11100492 -155.31640625 224.13671875 C-155.56692269 229.85323614 -155.5509849 235.55661983 -155.51171875 241.27734375 C-155.50797939 242.89686914 -155.50513679 244.51639682 -155.50314331 246.13592529 C-155.49557941 250.35758937 -155.47599498 254.57911147 -155.45373535 258.80072021 C-155.42948165 263.88787401 -155.42046138 268.97507581 -155.40882874 274.06227112 C-155.38956491 281.75385181 -155.35119237 289.44512219 -155.31640625 297.13671875 C-135.51640625 297.13671875 -115.71640625 297.13671875 -95.31640625 297.13671875 C-95.06767695 287.34019527 -95.06767695 287.34019527 -94.83837891 277.54321289 C-94.29640473 258.72738982 -94.29640473 258.72738982 -87.75390625 250.76171875 C-87.08355347 249.93184448 -87.08355347 249.93184448 -86.3996582 249.08520508 C-85.05259729 247.4235996 -83.68601893 245.7797467 -82.31640625 244.13671875 C-81.22585938 242.79287109 -81.22585938 242.79287109 -80.11328125 241.421875 C-77.8613657 238.64868271 -75.58850874 235.89339287 -73.31640625 233.13671875 C-66.62328324 224.96285537 -59.98306086 216.7532481 -53.48095703 208.42651367 C-49.43768116 203.26107908 -45.29811796 198.17695195 -41.15014648 193.09545898 C-37.22543174 188.2788428 -33.37494996 183.41007016 -29.56176758 178.50488281 C-27.00578477 175.23404021 -24.3972491 172.01729776 -21.73046875 168.8359375 C-21.11228271 168.09657959 -20.49409668 167.35722168 -19.85717773 166.59545898 C-18.66487414 165.1744643 -17.46690319 163.75819562 -16.26196289 162.34790039 C-8.17511659 152.70395218 -4.41000476 145.63636616 -4.5559082 132.84008789 C-4.54700058 131.54622162 -4.53809296 130.25235535 -4.52891541 128.91928101 C-4.50601463 125.40081104 -4.52043837 121.88343807 -4.54338479 118.36500478 C-4.56240949 114.6735338 -4.55112693 110.98213129 -4.54447937 107.29063416 C-4.53815905 101.10137635 -4.55631429 94.91255489 -4.58911133 88.72338867 C-4.62671489 81.56798358 -4.62477088 74.41340008 -4.60207015 67.25795084 C-4.58113848 60.36258786 -4.58837744 53.46752865 -4.6083889 46.57217216 C-4.61637466 43.64113118 -4.61438442 40.7103472 -4.6043644 37.77931404 C-4.59187419 33.69493266 -4.62052355 29.61185443 -4.65356445 25.52758789 C-4.64501434 24.31043594 -4.63646423 23.093284 -4.62765503 21.83924866 C-4.64319931 20.73049377 -4.65874359 19.62173889 -4.67475891 18.47938538 C-4.67794286 17.51435121 -4.6811268 16.54931704 -4.68440723 15.55503941 C-5.11222608 12.90184446 -5.11222608 12.90184446 -7.72052288 11.30695248 C-11.33960728 9.67545598 -13.25229367 10.19565029 -16.97265625 11.21875 Z M-52.31640625 41.13671875 C-56.36401047 45.5125071 -57.44337543 48.65118746 -57.42993164 54.52612305 C-57.42985611 55.62703781 -57.42978058 56.72795258 -57.42970276 57.86222839 C-57.42454147 59.0498024 -57.41938019 60.2373764 -57.4140625 61.4609375 C-57.41264755 62.67747513 -57.4112326 63.89401276 -57.40977478 65.14741516 C-57.40416937 69.03970785 -57.39161592 72.93194339 -57.37890625 76.82421875 C-57.37389195 79.46028563 -57.36932892 82.09635341 -57.36523438 84.73242188 C-57.35419818 91.20054291 -57.33692987 97.66862114 -57.31640625 104.13671875 C-53.02640625 105.12671875 -48.73640625 106.11671875 -44.31640625 107.13671875 C-44.31640625 84.36671875 -44.31640625 61.59671875 -44.31640625 38.13671875 C-47.51256689 38.13671875 -49.5820537 39.55079427 -52.31640625 41.13671875 Z " fill="#000000" transform="translate(489.31640625,187.86328125)"/>
<path d="M0 0 C6.8866942 2.79236606 12.47647446 5.94756946 16.640625 12.2734375 C17.41599609 13.44712891 17.41599609 13.44712891 18.20703125 14.64453125 C19.46660297 16.93431984 20.00666529 18.8092355 20.578125 21.3359375 C21.12715397 23.38126511 21.12715397 23.38126511 22.515625 25.0234375 C25.69646117 26.32428366 28.88250284 27.13168085 32.2109375 27.98046875 C38.71069176 30.03180963 42.82618902 34.25645302 45.953125 40.2109375 C48.07741948 44.88819575 48.6397712 48.93667516 48.62915039 54.07714844 C48.62903709 55.90859406 48.62903709 55.90859406 48.62892151 57.77703857 C48.62376022 59.09069397 48.61859894 60.40434937 48.61328125 61.7578125 C48.61141521 63.1197301 48.60999218 64.48164838 48.60899353 65.84356689 C48.60518303 69.42085639 48.59536532 72.99810502 48.58428955 76.57537842 C48.57404384 80.22863207 48.56948915 83.88189236 48.56445312 87.53515625 C48.55374169 94.69793526 48.53668294 101.86068064 48.515625 109.0234375 C49.1139917 109.30034424 49.7123584 109.57725098 50.32885742 109.86254883 C53.6168989 111.60807046 56.14200546 114.17346617 58.828125 116.7109375 C59.40844482 117.25258545 59.98876465 117.7942334 60.58666992 118.35229492 C64.10500224 121.64965249 67.54160474 125.01430137 70.91796875 128.45703125 C72.68028771 130.18487942 74.51865592 131.79022923 76.390625 133.3984375 C79.4003003 135.98977955 82.22651116 138.69598533 85.015625 141.5234375 C87.7641849 144.30964891 90.54422291 146.97652142 93.515625 149.5234375 C97.30921233 152.77508378 100.78955147 156.28056844 104.296875 159.8359375 C106.91945857 162.42158327 109.67661537 164.8050041 112.47265625 167.19921875 C115.56905155 169.96406885 118.44807954 172.93380662 121.33984375 175.91015625 C123.49274628 178.07995099 123.49274628 178.07995099 126.0078125 179.953125 C139.31531039 190.93906563 144.63139294 207.51194913 146.515625 224.0234375 C146.97708866 230.34402997 146.91664226 236.6744602 146.87890625 243.0078125 C146.87838581 244.76515706 146.87891058 246.5225022 146.88041687 248.27984619 C146.88032811 251.92363417 146.87008584 255.56719643 146.85180664 259.2109375 C146.82891866 263.87454326 146.82862212 268.53782649 146.83532429 273.20147324 C146.83866429 276.8131598 146.83203691 280.42477298 146.82219505 284.03644562 C146.81835849 285.75720079 146.8171884 287.47796413 146.8187809 289.19872284 C146.8191522 291.59325308 146.80652019 293.9873682 146.7902832 296.38183594 C146.79276062 297.08521088 146.79523804 297.78858582 146.79779053 298.51327515 C146.75328827 302.63031919 146.59327929 306.94578321 143.515625 310.0234375 C141.00098656 310.12911099 138.51367285 310.17021972 135.99829102 310.16870117 C135.21131836 310.17205978 134.4243457 310.1754184 133.61352539 310.17887878 C130.99884484 310.18841729 128.38422814 310.19033334 125.76953125 310.19140625 C123.95971144 310.19461681 122.14989189 310.19798072 120.34007263 310.20149231 C116.54108071 310.20749084 112.74211156 310.20933147 108.94311523 310.20874023 C104.06579727 310.20863857 99.18862475 310.2222921 94.31134129 310.23951244 C90.57194849 310.25060976 86.8325911 310.25266014 83.09318352 310.25213051 C81.29458044 310.25331401 79.49597655 310.25775635 77.6973896 310.26546288 C75.18560615 310.27521722 72.67414167 310.27240293 70.16235352 310.26635742 C69.41370529 310.27197693 68.66505707 310.27759644 67.89372253 310.28338623 C62.7439406 310.2517531 62.7439406 310.2517531 60.515625 308.0234375 C60.30594918 305.09533637 60.21447247 302.2542893 60.20703125 299.32421875 C60.18185623 297.53971049 60.15645844 295.75520536 60.13085938 293.97070312 C60.10219717 291.15764282 60.07818332 288.34463737 60.05932617 285.53149414 C60.03756228 282.81626925 59.99809798 280.10171055 59.95703125 277.38671875 C59.95685753 276.13789665 59.95685753 276.13789665 59.9566803 274.86384583 C59.81678341 266.53800056 57.11518418 261.17729691 51.515625 254.9609375 C50.52129823 253.8221769 49.52917573 252.68148852 48.5390625 251.5390625 C47.78254395 250.66797852 47.78254395 250.66797852 47.01074219 249.77929688 C44.63520271 246.98947324 42.38671153 244.10528144 40.140625 241.2109375 C36.16071917 236.09647218 32.11459441 231.04300204 28.015625 226.0234375 C23.98342335 221.0840939 19.99751481 216.11524301 16.078125 211.0859375 C11.97624278 205.82587677 7.76972905 200.66103314 3.515625 195.5234375 C-1.69108107 189.23305927 -6.80681358 182.88499594 -11.8125 176.43359375 C-13.66126954 174.05532892 -15.5502901 171.7169101 -17.46875 169.39453125 C-18.20992065 168.48513794 -18.20992065 168.48513794 -18.96606445 167.55737305 C-19.89486656 166.41922832 -20.83266198 165.28832396 -21.78198242 164.16723633 C-28.93748902 155.32458214 -30.07368698 146.33662589 -30.00195312 135.22363281 C-30.00738493 133.86244461 -30.0145135 132.5012623 -30.02319336 131.14009094 C-30.04129736 127.47289277 -30.03441528 123.80614892 -30.02167702 120.13894367 C-30.01149 116.28872339 -30.02095766 112.43853981 -30.02722168 108.58831787 C-30.0344781 102.12928334 -30.02495968 95.67043239 -30.00585938 89.21142578 C-29.98405743 81.75285855 -29.9911739 74.29472819 -30.013165 66.83617139 C-30.03133239 60.41635827 -30.03387193 53.99667641 -30.02341032 47.57684588 C-30.01718744 43.74929055 -30.0163071 39.92194049 -30.02955627 36.0943985 C-30.0411352 32.49904139 -30.03305273 28.90424693 -30.00997925 25.30895042 C-30.00219475 23.36597333 -30.01402802 21.42294846 -30.02648926 19.47999573 C-29.92335741 8.8428206 -29.92335741 8.8428206 -25.484375 4.0234375 C-18.17037209 -2.41985078 -9.17725614 -2.57210093 0 0 Z M-15.484375 12.0234375 C-17.35010482 15.20217803 -17.73529614 17.5292 -17.73834229 21.19610596 C-17.74398193 22.24181259 -17.74962158 23.28751923 -17.75543213 24.36491394 C-17.75138367 25.50680679 -17.74733521 26.64869965 -17.74316406 27.82519531 C-17.7466687 29.0321254 -17.75017334 30.23905548 -17.75378418 31.4825592 C-17.76107952 34.79069327 -17.75936684 38.09857721 -17.75302601 41.40669727 C-17.74795659 44.87430466 -17.75266051 48.34190147 -17.75579834 51.80950928 C-17.75943718 57.63686028 -17.75464308 63.4641606 -17.74511719 69.29150391 C-17.73425319 76.01475836 -17.73774353 82.73789131 -17.74877 89.46114278 C-17.75786964 95.24220287 -17.75911448 101.02322654 -17.75389266 106.80429149 C-17.75078501 110.25300379 -17.75032989 113.70165916 -17.75696564 117.15036774 C-17.763858 121.00165966 -17.75428271 124.8528176 -17.74316406 128.70410156 C-17.74721252 129.83789749 -17.75126099 130.97169342 -17.75543213 132.1398468 C-17.71426993 139.85448894 -17.37927543 147.0123478 -12.76953125 153.51953125 C-12.23730957 154.27218262 -11.70508789 155.02483398 -11.15673828 155.80029297 C-8.51144525 159.31679492 -5.7558966 162.72031031 -2.921875 166.0859375 C-1.6844415 167.5725386 -0.44747329 169.05952711 0.7890625 170.546875 C1.72057129 171.66400879 1.72057129 171.66400879 2.67089844 172.80371094 C5.53822476 176.25391355 8.3741697 179.72924443 11.203125 183.2109375 C11.7401001 183.8716626 12.2770752 184.5323877 12.83032227 185.21313477 C16.72171272 190.01470883 20.54842554 194.8640703 24.35229492 199.73510742 C28.39504116 204.90014866 32.53431653 209.98369829 36.68188477 215.06469727 C40.60594378 219.88050871 44.45639886 224.74801346 48.26806641 229.65307617 C50.83453214 232.93824546 53.45593194 236.16659092 56.13671875 239.359375 C57.07076538 240.47517944 57.07076538 240.47517944 58.02368164 241.61352539 C59.22861421 243.04787889 60.43962527 244.47715828 61.65795898 245.90014648 C69.33424807 255.04596301 72.48457386 262.37852653 72.83203125 274.390625 C72.87013916 275.63440918 72.90824707 276.87819336 72.94750977 278.15966797 C73.01216431 280.50535889 73.01216431 280.50535889 73.078125 282.8984375 C73.2946875 290.3853125 73.2946875 290.3853125 73.515625 298.0234375 C93.315625 298.0234375 113.115625 298.0234375 133.515625 298.0234375 C133.57390741 285.51954015 133.57390741 285.51954015 133.61328125 273.015625 C133.62518361 267.90718369 133.63918239 262.79881485 133.66650391 257.69042969 C133.68841855 253.56663474 133.7002324 249.44291765 133.70537949 245.31906891 C133.70904213 243.7548017 133.71619311 242.1905382 133.72708511 240.62630463 C133.85580177 221.35423841 131.17244659 203.65736844 117.078125 189.2734375 C114.00925798 186.3891126 110.80833827 183.65384314 107.6171875 180.90625 C105.32897389 178.85621476 103.17301918 176.71048658 101.015625 174.5234375 C98.2670651 171.73722609 95.48702709 169.07035358 92.515625 166.5234375 C88.72203767 163.27179122 85.24169853 159.76630656 81.734375 156.2109375 C79.72131868 154.22623408 77.66116097 152.36246834 75.515625 150.5234375 C71.72203767 147.27179122 68.24169853 143.76630656 64.734375 140.2109375 C62.11017295 137.62369604 59.3533059 135.23788105 56.55078125 132.84765625 C54.23889882 130.77539311 52.10776366 128.57078268 49.953125 126.3359375 C45.31713057 121.67608719 41.63774355 118.40024491 34.890625 117.5859375 C29.74932128 118.2524028 27.51713276 119.83245529 24.203125 123.7734375 C22.19576173 127.63947047 21.90108234 129.72163887 22.515625 134.0234375 C25.66080247 139.50367097 29.9148928 143.85362059 34.265625 148.3984375 C34.94367188 149.11515625 35.62171875 149.831875 36.3203125 150.5703125 C40.38569247 154.85210053 44.52051118 159.05409783 48.72607422 163.19824219 C50.52924272 165.03732646 52.21821256 166.94032562 53.890625 168.8984375 C57.41199444 172.99866219 61.23088704 176.754391 65.07421875 180.55078125 C68.38680534 183.90576895 71.45587787 187.43969698 74.515625 191.0234375 C74.845625 191.3534375 75.175625 191.6834375 75.515625 192.0234375 C75.765625 195.4609375 75.765625 195.4609375 75.515625 199.0234375 C72.515625 201.0234375 72.515625 201.0234375 69.19921875 201.02734375 C64.45293688 199.73381836 62.64400359 197.64951667 59.578125 193.9609375 C58.53520214 192.7670503 57.49093135 191.57433923 56.4453125 190.3828125 C55.94483398 189.80337891 55.44435547 189.22394531 54.92871094 188.62695312 C53.10812094 186.56101755 51.17647167 184.63053542 49.203125 182.7109375 C46.72773879 180.27621472 44.39976143 177.78497027 42.140625 175.1484375 C39.39941051 171.95661241 36.50876612 168.98040773 33.515625 166.0234375 C29.92873736 162.47447767 26.50757641 158.8652618 23.2421875 155.01953125 C22.00119257 153.58480635 20.71977174 152.18468508 19.4140625 150.80859375 C18.70507812 150.05449219 17.99609375 149.30039062 17.265625 148.5234375 C16.62109375 147.853125 15.9765625 147.1828125 15.3125 146.4921875 C10.45055945 139.81230396 10.0838054 133.2076158 10.14672852 125.23632812 C10.14296204 124.18487106 10.13919556 123.133414 10.13531494 122.0500946 C10.12890422 119.77865997 10.12919197 117.50719848 10.13549995 115.23576355 C10.14463962 111.63701538 10.13435338 108.03878492 10.11888123 104.44006348 C10.07885806 94.21249148 10.07758003 83.98496153 10.07983398 73.75732422 C10.07988513 67.49102572 10.06069767 61.22500764 10.03050041 54.95878601 C10.01969295 51.42013314 10.03179424 47.88201921 10.04432678 44.34338379 C10.03542063 42.1657661 10.02534565 39.98815278 10.01391602 37.81054688 C10.02853127 36.34369698 10.02853127 36.34369698 10.04344177 34.84721375 C9.97323047 28.12778575 8.78721232 22.55433997 4.10375309 17.49965668 C-2.15939179 11.95251087 -7.48317767 11.743784 -15.484375 12.0234375 Z M22.515625 39.0234375 C22.515625 61.7934375 22.515625 84.5634375 22.515625 108.0234375 C26.805625 107.0334375 31.095625 106.0434375 35.515625 105.0234375 C35.58984764 97.30047706 35.64426247 89.57772483 35.68041992 81.85449219 C35.6954952 79.22782779 35.71595866 76.60118851 35.74194336 73.97460938 C35.77838076 70.19655146 35.79536438 66.41882673 35.80859375 62.640625 C35.82407761 61.46853485 35.83956146 60.2964447 35.85551453 59.08883667 C35.87762535 51.13204262 35.87762535 51.13204262 32.515625 44.0234375 C28.99155296 40.5921042 27.52855867 40.02602423 22.515625 39.0234375 Z " fill="#000000" transform="translate(44.484375,186.9765625)"/>
<path d="M0 0 C19.51388004 14.09009944 30.17438978 33.65511458 34.890625 56.921875 C38.04041144 77.92045128 32.43233672 99.91626486 20.54296875 117.3671875 C18.59290641 119.88060119 16.559471 122.25373642 14.421875 124.609375 C13.68324219 125.44082031 12.94460938 126.27226562 12.18359375 127.12890625 C-2.1432462 142.39367353 -22.67045352 152.0374855 -43.671875 152.8125 C-66.73032608 153.22179077 -88.33012539 146.91734433 -105.35083008 130.79174805 C-106.77205195 129.40998499 -108.17549785 128.01000979 -109.578125 126.609375 C-110.691875 125.51302734 -110.691875 125.51302734 -111.828125 124.39453125 C-126.62531555 108.87482163 -133.27972196 87.03579497 -132.828125 65.8671875 C-131.93289158 54.20117694 -129.46699267 43.28363621 -124.578125 32.609375 C-124.15917969 31.68898437 -123.74023438 30.76859375 -123.30859375 29.8203125 C-114.28594388 11.77501275 -97.35315411 -3.28801743 -78.3046875 -9.96484375 C-51.51795049 -18.72361445 -23.40620837 -16.08040287 0 0 Z M-104.546875 25.0546875 C-115.20810857 38.46323896 -121.10087388 56.43086417 -119.578125 73.609375 C-116.78461214 94.60437007 -108.11163519 112.03200739 -91.578125 125.609375 C-84.02863648 131.06718555 -75.5102955 135.01836371 -66.578125 137.609375 C-65.80597656 137.83367187 -65.03382813 138.05796875 -64.23828125 138.2890625 C-45.50024204 142.84106537 -26.68230074 138.23841995 -10.32470703 128.71240234 C-5.86220072 125.89417429 -2.21547008 122.39960324 1.421875 118.609375 C2.18886719 117.87332031 2.95585937 117.13726562 3.74609375 116.37890625 C16.15158428 103.8049201 22.00560452 86.51931244 22.671875 69.109375 C22.51296142 57.64994036 19.9082501 46.659914 14.421875 36.609375 C13.97972656 35.77019531 13.53757812 34.93101563 13.08203125 34.06640625 C3.46066641 16.87587904 -12.36551763 5.51403525 -31.015625 -0.265625 C-59.17824485 -6.50323444 -85.88978806 3.441372 -104.546875 25.0546875 Z " fill="#000000" transform="translate(304.578125,65.390625)"/>
<path d="M0 0 C3.88446678 2.58964452 6.69907021 5.64814041 8.8125 9.875 C9.12109375 11.94140625 9.12109375 11.94140625 9.25 14.4375 C9.31058594 15.24316406 9.37117188 16.04882812 9.43359375 16.87890625 C7.40989662 26.64101754 -1.93050476 34.04386462 -8.75390625 40.8046875 C-9.87729695 41.92755839 -11.0001668 43.0509506 -12.12254333 44.17483521 C-14.46201662 46.51421934 -16.80651656 48.84840246 -19.1550293 51.17871094 C-22.15836229 54.15926665 -25.15039615 57.15086944 -28.13899326 60.14619255 C-30.45063326 62.46117832 -32.76724055 64.77113972 -35.08546257 67.07953262 C-36.19073833 68.18097354 -37.29468611 69.2837488 -38.39724922 70.38790512 C-39.93777413 71.92880239 -41.48465861 73.4630202 -43.03344727 74.99560547 C-43.9102565 75.86780731 -44.78706573 76.74000916 -45.69044495 77.63864136 C-50.25440164 81.72611391 -54.00019827 83.66875661 -60.1875 83.875 C-67.50237751 82.47684556 -71.91961307 79.00336834 -76.99609375 73.7578125 C-77.68888931 73.06364227 -78.38168488 72.36947205 -79.09547424 71.65426636 C-80.54697371 70.19375544 -81.99122803 68.72601141 -83.4284668 67.25146484 C-85.62726674 64.99767657 -87.8493573 62.76904768 -90.07617188 60.54296875 C-91.48840596 59.11599398 -92.89926265 57.68765443 -94.30859375 56.2578125 C-94.96999863 55.59306915 -95.6314035 54.92832581 -96.31285095 54.24343872 C-100.68779188 49.73155684 -103.44523161 45.99666885 -103.5625 39.5 C-103.43034712 34.53600733 -102.1542797 31.85673065 -99.1875 27.875 C-95.01602643 24.35242232 -91.65302872 22.96763608 -86.1875 22.875 C-78.11997717 24.25845181 -73.56052896 28.75539237 -68.125 34.5625 C-67.35478516 35.35978516 -66.58457031 36.15707031 -65.79101562 36.97851562 C-63.90869031 38.93098971 -62.04190532 40.89605222 -60.1875 42.875 C-56.84399584 41.42379357 -54.68500398 39.60193038 -52.14086914 37.0078125 C-51.35647964 36.21358887 -50.57209015 35.41936523 -49.76393127 34.60107422 C-48.92531052 33.74271973 -48.08668976 32.88436523 -47.22265625 32 C-45.43566609 30.19259046 -43.64855293 28.38530252 -41.86132812 26.578125 C-39.04993314 23.72319779 -36.24093462 20.86596917 -33.43481445 18.00585938 C-30.72468219 15.24748889 -28.0054439 12.49835033 -25.28515625 9.75 C-24.44855972 8.89164551 -23.6119632 8.03329102 -22.75001526 7.14892578 C-21.56870277 5.95759033 -21.56870277 5.95759033 -20.36352539 4.7421875 C-19.67609756 4.04206543 -18.98866974 3.34194336 -18.28041077 2.62060547 C-12.85404661 -1.90528789 -6.48049669 -2.28723412 0 0 Z M-8.1875 11.875 C-8.75935028 12.44907089 -9.33120056 13.02314178 -9.92037964 13.61460876 C-15.30337182 19.01761716 -20.68874982 24.41823077 -26.07684135 29.81615353 C-28.84699098 32.59152733 -31.6162004 35.36782601 -34.38330078 38.14624023 C-37.05247599 40.82626077 -39.7240687 43.50384905 -42.3973732 46.17975044 C-43.41814229 47.20237081 -44.43802915 48.22587258 -45.45702744 49.25025749 C-46.88162844 50.68209065 -48.30962989 52.11053813 -49.73779297 53.53881836 C-50.5505368 54.35378281 -51.36328064 55.16874725 -52.20065308 56.00840759 C-54.83279597 58.48123924 -55.82968017 58.83528057 -59.47998047 59.24047852 C-64.18191916 58.77697251 -65.34806863 57.46427384 -68.5078125 54.02734375 C-68.97436249 53.53665909 -69.44091248 53.04597443 -69.92160034 52.54042053 C-71.40323145 50.98024463 -72.85968622 49.39951233 -74.3125 47.8125 C-75.77334921 46.2229787 -77.23875295 44.63985536 -78.724823 43.0738678 C-80.06890872 41.65719848 -81.3907853 40.2195562 -82.71142578 38.78100586 C-85.0409787 36.55009255 -85.0409787 36.55009255 -88.00341797 37.08032227 C-88.72416504 37.34256592 -89.44491211 37.60480957 -90.1875 37.875 C-89.60783012 40.98630595 -88.78812249 42.65764707 -86.58300781 44.9152832 C-86.03864075 45.47878983 -85.49427368 46.04229645 -84.93341064 46.62287903 C-84.34179138 47.21783676 -83.75017212 47.81279449 -83.140625 48.42578125 C-82.53240906 49.04398239 -81.92419312 49.66218353 -81.29754639 50.29911804 C-80.01028639 51.60155051 -78.7189377 52.89995279 -77.42382812 54.19458008 C-75.44278179 56.18220068 -73.48695696 58.19255926 -71.53125 60.20507812 C-70.27751608 61.46761169 -69.02235432 62.72872929 -67.765625 63.98828125 C-67.18210266 64.59336014 -66.59858032 65.19843903 -65.99737549 65.82185364 C-64.15522379 67.70137857 -64.15522379 67.70137857 -61.1875 69.875 C-56.37858548 69.77526895 -54.1299248 67.32853767 -50.83056641 64.05151367 C-50.32104431 63.55060715 -49.81152222 63.04970062 -49.28656006 62.53361511 C-47.61041423 60.88011692 -45.94937448 59.21235474 -44.2890625 57.54296875 C-43.12847224 56.38761306 -41.9673624 55.23277909 -40.80575562 54.07844543 C-38.37664796 51.65973863 -35.95516562 49.23370014 -33.53857422 46.80249023 C-30.43646587 43.68315927 -27.31441872 40.58468761 -24.18618202 37.49158764 C-21.78563358 35.11296003 -19.39684414 32.72279573 -17.0113945 30.32903481 C-15.86450777 29.18132633 -14.71374929 28.03747364 -13.55913162 26.89754295 C-11.94983922 25.30560588 -10.35725305 23.69864399 -8.76806641 22.08666992 C-7.8571524 21.17479416 -6.9462384 20.2629184 -6.00772095 19.32341003 C-3.95654762 17.08071097 -3.95654762 17.08071097 -4.2137146 14.61177063 C-5.13043057 12.52022592 -5.13043057 12.52022592 -8.1875 11.875 Z " fill="#000000" transform="translate(303.1875,93.125)"/>
</svg>
